<?xml version="1.0" standalone="no"?><!DOCTYPE svg PUBLIC "-//W3C//DTD SVG 1.1//EN" "http://www.w3.org/Graphics/SVG/1.1/DTD/svg11.dtd"><svg t="1698980723566" class="icon" viewBox="0 0 1024 1024" version="1.1" xmlns="http://www.w3.org/2000/svg" p-id="4727" xmlns:xlink="http://www.w3.org/1999/xlink" width="32" height="32"><path d="M882.3 538.5s16.5 125.8-58.4 169.6c-49.8 29.2-177.1 87.5-209.3 87.7 0 0 230.2 13.6 281-49.9 50.9-63.6 20.8-203.4-13.3-207.4zM899.7 263.5s9.4 81.7-68.2 202c0 0 69.2 29.5 83-55.4s3.8-141.6-14.8-146.6z" fill="#BBDAFF" p-id="4728"></path><path d="M882.9 764.6c-2.1 0-4.1-0.8-5.7-2.4l-35.5-35.5c-3.1-3.1-3.1-8.2 0-11.4 3.1-3.1 8.2-3.1 11.4 0l35.5 35.5c3.1 3.1 3.1 8.2 0 11.4-1.6 1.7-3.7 2.4-5.7 2.4zM909 731.4c-2.1 0-4.1-0.8-5.7-2.4l-35.5-35.5c-3.1-3.1-3.1-8.2 0-11.4 3.1-3.1 8.2-3.1 11.4 0l35.5 35.5c3.1 3.1 3.1 8.2 0 11.4-1.6 1.7-3.7 2.4-5.7 2.4zM912 677.2c-2.1 0-4.1-0.8-5.7-2.4L880 648.6c-3.1-3.1-3.1-8.2 0-11.4 3.1-3.1 8.2-3.1 11.4 0l26.3 26.3c3.1 3.1 3.1 8.2 0 11.4-1.6 1.5-3.7 2.3-5.7 2.3zM888.2 465.7c-2.1 0-4.1-0.8-5.7-2.4l-26.6-26.6c-3.1-3.1-3.1-8.2 0-11.4 3.1-3.1 8.2-3.1 11.4 0l26.6 26.6c3.1 3.1 3.1 8.2 0 11.4-1.6 1.7-3.7 2.4-5.7 2.4zM904.7 433.1c-2.1 0-4.1-0.8-5.7-2.4l-24.4-24.4c-3.1-3.1-3.1-8.2 0-11.4 3.1-3.1 8.2-3.1 11.4 0l24.4 24.4c3.1 3.1 3.1 8.2 0 11.4-1.6 1.6-3.6 2.4-5.7 2.4zM918.4 400.7c-2.1 0-4.1-0.8-5.7-2.4l-24.2-24.2c-3.1-3.1-3.1-8.2 0-11.4 3.1-3.1 8.2-3.1 11.4 0L924 387c3.1 3.1 3.1 8.2 0 11.4-1.5 1.6-3.6 2.3-5.6 2.3zM927.1 361.5c-2.1 0-4.1-0.8-5.7-2.4l-25.3-25.3c-3.1-3.1-3.1-8.2 0-11.4s8.2-3.1 11.4 0l25.3 25.3c3.1 3.1 3.1 8.2 0 11.4-1.6 1.6-3.6 2.4-5.7 2.4zM918 641.1c-2.1 0-4.1-0.8-5.7-2.4l-26.8-26.8c-3.1-3.1-3.1-8.2 0-11.4 3.1-3.1 8.2-3.1 11.4 0l26.8 26.8c3.1 3.1 3.1 8.2 0 11.4-1.6 1.6-3.6 2.4-5.7 2.4zM841.7 781.1c-2.1 0-4.1-0.8-5.7-2.4l-29-29c-3.1-3.1-3.1-8.2 0-11.4 3.1-3.1 8.2-3.1 11.4 0l29.1 29.1c3.1 3.1 3.1 8.2 0 11.4-1.7 1.5-3.7 2.3-5.8 2.3zM789.8 790.4c-2.1 0-4.1-0.8-5.7-2.4l-25.5-25.5c-3.1-3.1-3.1-8.2 0-11.4 3.1-3.1 8.2-3.1 11.4 0l25.5 25.5c3.1 3.1 3.1 8.2 0 11.4-1.6 1.7-3.7 2.4-5.7 2.4zM742.6 798.4c-2.1 0-4.1-0.8-5.7-2.4l-22.2-22.2c-3.1-3.1-3.1-8.2 0-11.4 3.1-3.1 8.2-3.1 11.4 0l22.2 22.2c3.1 3.1 3.1 8.2 0 11.4-1.6 1.6-3.6 2.4-5.7 2.4z" fill="#0F82FF" p-id="4729"></path><path d="M534.9 228.1c147.4 0 291.7 11.6 355.1 42.5 36.5 27 19.2 115.2 7.6 159.6-4 15.4-13.5 26.1-28.9 26.1h-29.2c-12.6 0-22.9 10.6-22.9 23.8v50c0 13 10.2 23.5 22.7 23.5H871c17.4 0 28 13.5 30 31.5 5.7 52 7 129.7-21.1 163-17.5 20.8-244.4 47.6-444.5 47.6-151.2 0-287.2-15.3-306.2-60.1-26.3-62.1-15.3-98.3-4-125 8.8-20.8 32.6-31.2 54.5-31.2h18.2c11.4 0 20.5-9.8 20.1-21.6l-1-48.4c-0.4-13.9-11.4-24.9-24.7-24.9h-35.6c-13.5 0-25.6-8.8-30.2-22-10.6-30.5-17.8-92.5-7-152.7 5.3-29.8 28.6-52.7 57.4-57.8 79.2-13.7 219.9-23.9 358-23.9m0-24v24.1-24.1c-133.6 0-279.1 9.9-362 24.5-39 6.9-69.9 37.9-76.9 77.2-11.5 64.3-3.9 130.5 8 164.8 7.9 22.8 29.2 38.2 52.9 38.2h35.6s0.6 0.4 0.6 1.4l0.9 45.3h-14.2c-34.8 0-64.9 18-76.7 45.9-14.1 33.2-24.6 76.2 4 143.8 12.6 29.8 51.3 49.2 121.6 61.2 52.9 9 122.5 13.6 206.7 13.6 93.8 0 200.8-5.9 293.4-16.2 149.8-16.6 163.1-32.4 169.5-40 35.8-42.5 32.1-131.7 26.6-181.2-3.5-31.7-25.2-53-54-53h-30.3v-49.1h28c25.5 0 45-16.5 52.3-44.1 6.1-23.5 13.7-58.4 15-91.5 1.8-45.3-8.8-76.7-31.5-93.6l-1.8-1.3-2-1c-80.2-39.1-263.6-44.9-365.7-44.9z" fill="#0F82FF" p-id="4730"></path><path d="M427.5 344.2c75.4 0 179 3.8 229.2 4.9 8.9 0.2 16.5 4.8 19.2 11.1 3.1 7.3-1.1 28.6-1.1 38.4 0 11.3-38.5 11.3-57.8 11.3-30.9 0-66 0.3-101.1 0.3-48.4 0-96.8-0.5-133.8-3.1-18.3-1.3-34.2-2.8-34.2-16.2V369c0-12.4 12.7-23.3 29.6-24 14-0.6 31.1-0.8 50-0.8m0-24.1c-20.4 0-37.6 0.3-51.1 0.8-29.5 1.2-52.7 22.3-52.7 48v21.9c0 16.3 9.8 29.6 26.3 35.4 9 3.2 19.1 4.1 30.3 4.9 40.5 2.8 93.7 3.2 135.5 3.2 18.1 0 36.3-0.1 53.8-0.1 16.4-0.1 32.3-0.1 47.3-0.1 10.1 0 25.5 0 38.9-1.6 8.9-1 16-2.7 21.6-5 13.4-5.4 21.3-16.2 21.3-28.8 0-2.1 0.5-6.5 0.9-10.4 1.7-16.2 2.5-27.6-1.7-37.4-6.5-15.2-22.5-25.3-40.8-25.7-14.4-0.3-33.2-0.8-54.9-1.5-53.8-1.7-120.8-3.6-174.7-3.6zM427.5 573.3c75.4 0 179 3.8 229.2 4.9 8.9 0.2 16.5 4.8 19.2 11.1 3.1 7.3-1.1 28.6-1.1 38.4 0 11.3-38.5 11.3-57.8 11.3-30.9 0-66 0.3-101.1 0.3-48.4 0-96.8-0.5-133.8-3.1-18.3-1.3-34.2-2.8-34.2-16.2v-21.9c0-12.4 12.7-23.3 29.6-24 14-0.6 31.1-0.8 50-0.8m0-24.1c-20.4 0-37.6 0.3-51.1 0.8-29.5 1.2-52.7 22.3-52.7 48v21.9c0 16.3 9.8 29.6 26.3 35.4 9 3.2 19.1 4.1 30.3 4.9 40.5 2.8 93.7 3.2 135.5 3.2 18.1 0 36.3-0.1 53.8-0.1 16.4-0.1 32.3-0.1 47.3-0.1 10.1 0 25.5 0 38.9-1.6 8.9-1 16-2.7 21.6-5 13.4-5.4 21.3-16.2 21.3-28.8 0-2.1 0.5-6.5 0.9-10.4 1.7-16.2 2.5-27.6-1.7-37.4-6.5-15.2-22.5-25.3-40.8-25.7-14.4-0.3-33.2-0.8-54.9-1.5-53.8-1.7-120.8-3.6-174.7-3.6z" fill="#0F82FF" p-id="4731"></path></svg>