<?xml version="1.0" standalone="no"?><!DOCTYPE svg PUBLIC "-//W3C//DTD SVG 1.1//EN" "http://www.w3.org/Graphics/SVG/1.1/DTD/svg11.dtd"><svg t="1698980763898" class="icon" viewBox="0 0 1024 1024" version="1.1" xmlns="http://www.w3.org/2000/svg" p-id="6180" xmlns:xlink="http://www.w3.org/1999/xlink" width="32" height="32"><path d="M862.7 183.9S845.1 242 817 258.8c-29.1 17.4-129.5 42.8-129.5 42.8s148 11.2 168.1-4.3c20.2-15.6 7.1-113.4 7.1-113.4zM773.6 592.8S740.8 818.5 712 851.2c-32.5 37-178 76.9-178 76.9s148.6 12.7 207.8-28.8c59.2-41.3 31.8-306.5 31.8-306.5z" fill="#BBEFBC" p-id="6181"></path><path d="M761.4 301.7c6.5 101 25.9 561.8-14.5 586.3-42.7 23.6-126.4 32.3-211.5 32.3-116.3 0-235.3-16.1-256.4-32.3-32.5-24.9-27-473.6-25.4-572.8-8.9-0.3-16.6-1.6-24-6.5-0.7 38.6-2.3 155.2-0.9 273 1 84.4 3.3 152.9 7 203.7 2.2 30.7 4.9 55.3 8.1 73.3 4.8 27.1 10.6 40.7 20.7 48.4 33.2 25.4 181.4 37.2 271 37.2 72.7 0 170.4-6.1 223.2-35.3l0.4-0.2 0.4-0.3c21.5-13 28.2-53.5 32.5-119 3.3-49.8 4.5-116.8 3.5-199.2-1.4-119.3-6.9-238.5-10-287.5-8.1 0.4-16.3 0.5-24.1-1.1z" fill="#01C700" p-id="6182"></path><path d="M754.3 894.9c-2.1 0-4.1-0.8-5.7-2.4l-29.3-29.3c-3.1-3.1-3.1-8.2 0-11.4 3.1-3.1 8.2-3.1 11.4 0l29.3 29.3c3.1 3.1 3.1 8.2 0 11.4-1.5 1.6-3.6 2.4-5.7 2.4zM858 300.2c-2.1 0-4.1-0.8-5.7-2.4L823.5 269c-3.1-3.1-3.1-8.2 0-11.4 3.1-3.1 8.2-3.1 11.4 0l28.9 28.9c3.1 3.1 3.1 8.2 0 11.4-1.6 1.5-3.7 2.3-5.8 2.3zM868.6 266.5c-2.1 0-4.1-0.8-5.7-2.4l-19.3-19.3c-3.1-3.1-3.1-8.2 0-11.4 3.1-3.1 8.2-3.1 11.4 0l19.3 19.3c3.1 3.1 3.1 8.2 0 11.4-1.6 1.7-3.6 2.4-5.7 2.4zM820.9 312.7c-2.1 0-4.1-0.8-5.7-2.4l-25-25c-3.1-3.1-3.1-8.2 0-11.4 3.1-3.1 8.2-3.1 11.4 0l25 25c3.1 3.1 3.1 8.2 0 11.4-1.6 1.7-3.7 2.4-5.7 2.4zM780.9 316.6c-2.1 0-4.1-0.8-5.7-2.4l-20.3-20.3c-3.1-3.1-3.1-8.2 0-11.4s8.2-3.1 11.4 0l20.3 20.3c3.1 3.1 3.1 8.2 0 11.4-1.6 1.6-3.7 2.4-5.7 2.4zM773.5 867.6c-2.1 0-4.1-0.8-5.7-2.4L735 832.4c-3.1-3.1-3.1-8.2 0-11.4 3.1-3.1 8.2-3.1 11.4 0l32.8 32.8c3.1 3.1 3.1 8.2 0 11.4-1.5 1.6-3.6 2.4-5.7 2.4zM776.7 825.3c-2.1 0-4.1-0.8-5.7-2.4l-26.7-26.7c-3.1-3.1-3.1-8.2 0-11.4 3.1-3.1 8.2-3.1 11.4 0l26.7 26.7c3.1 3.1 3.1 8.2 0 11.4-1.6 1.6-3.6 2.4-5.7 2.4zM782.9 751.5c-2.1 0-4.1-0.8-5.7-2.4L756 727.9c-3.1-3.1-3.1-8.2 0-11.4 3.1-3.1 8.2-3.1 11.4 0l21.2 21.2c3.1 3.1 3.1 8.2 0 11.4-1.6 1.6-3.6 2.4-5.7 2.4zM782.9 712.1c-2.1 0-4.1-0.8-5.7-2.4l-16.6-16.6c-3.1-3.1-3.1-8.2 0-11.4 3.1-3.1 8.2-3.1 11.4 0l16.6 16.6c3.1 3.1 3.1 8.2 0 11.4-1.6 1.6-3.6 2.4-5.7 2.4zM782.7 790.6c-2.1 0-4.1-0.8-5.7-2.4L750.8 762c-3.1-3.1-3.1-8.2 0-11.4 3.1-3.1 8.2-3.1 11.4 0l26.2 26.2c3.1 3.1 3.1 8.2 0 11.4-1.6 1.6-3.6 2.4-5.7 2.4zM725.5 915.7c-2.1 0-4.1-0.8-5.7-2.4l-26.9-26.9c-3.1-3.1-3.1-8.2 0-11.4s8.2-3.1 11.4 0l26.9 26.9c3.1 3.1 3.1 8.2 0 11.4-1.6 1.6-3.7 2.4-5.7 2.4zM688.2 929.7c-2.1 0-4.1-0.8-5.7-2.4l-25-25c-3.1-3.1-3.1-8.2 0-11.4 3.1-3.1 8.2-3.1 11.4 0l25 25c3.1 3.1 3.1 8.2 0 11.4-1.6 1.6-3.6 2.4-5.7 2.4zM639.9 934.2c-2.1 0-4.1-0.8-5.7-2.4l-15.7-15.7c-3.1-3.1-3.1-8.2 0-11.4 3.1-3.1 8.2-3.1 11.4 0l15.7 15.7c3.1 3.1 3.1 8.2 0 11.4-1.6 1.7-3.6 2.4-5.7 2.4z" fill="#01C700" p-id="6183"></path><path d="M549.8 103.7c32.2 0 61.3 2.5 76.9 9.2 13.6 9.8 12.3 41.3 10.8 56.9-0.4 4.4 3.3 8.2 8 8.2h0.6c23.3-1.5 88.3-6.9 138.3-6.9 29.9 0 54.6 1.9 61.8 7.8 22.6 18.2 7.6 107.5-1 108.6-5.7 0.7-284.1 14.3-479.9 14.3-101.7 0-181-3.7-188.4-14.7-21.5-32.3-6.7-88.9 4.1-95.2 9.1-5.3 123.7-13.8 184.6-13.8 3.5 0 6.8 0 9.9 0.1h0.3c8.2 0 14.8-6.4 14.5-14.1-0.7-15 0.8-36.9 13.8-44 13.3-7.4 85-16.4 145.7-16.4m0-24.1c-50.9 0-135.4 7.3-157.2 19.2-20 10.9-25.7 34.1-26.4 55h-0.5c-28.8 0-72.3 1.9-113.5 5-71.6 5.3-78.3 9.2-83.2 12.1-10.6 6.2-18.4 19.9-23.3 40.7-2.9 12.5-10.7 55.7 11.3 88.6 7.8 11.7 21.9 18.4 77.2 22.2 31.6 2.2 75.8 3.3 131.2 3.3 190.5 0 473.8-13.4 482.7-14.4 18.7-2.2 24.4-21.7 26.5-29.1 4.7-16.2 7.7-39.4 7.7-59.1 0-31.1-6.8-51.7-20.9-63.1-9.8-7.9-26.6-13.1-76.9-13.1-41.1 0-90.8 3.5-121.8 5.7 0.1-28.9-7.2-48.8-21.8-59.3l-2.2-1.6-2.5-1c-17.7-7.5-45.9-11.1-86.4-11.1zM409.9 420.2c14.3 0 29 3.2 33.4 7.8 12.7 13.1 0.7 339.9-5.7 351.4-2.8 5-11.6 7.3-21.5 7.3-12.7 0-27.3-3.7-33.3-10.2-9.7-10.4-3.2-287.5-1.9-337.2 0.2-7.4 3.5-14.6 8.9-16.3 5.7-2 12.9-2.8 20.1-2.8m0-24.1c-10.5 0-19.8 1.3-27.7 3.9-15 4.9-24.9 20.1-25.4 38.6-0.6 23.6-2.6 106.4-3.1 183.8-0.3 43.8-0.2 79 0.5 104.6 1.3 50.8 4 58.4 11 65.8 12.2 13.2 34.3 17.9 51 17.9 20.4 0 35.5-7 42.6-19.7 2.9-5.3 5-9.1 8.4-68.2 1.9-33.5 3.6-76.4 4.7-117.9 4.6-177.4-3-185.3-11.1-193.7-13.4-13.6-40-15.1-50.9-15.1zM607.4 420.2c14.3 0 29 3.2 33.4 7.8 12.7 13.1 0.7 339.9-5.7 351.4-2.8 5-11.6 7.3-21.5 7.3-12.7 0-27.3-3.7-33.3-10.2-9.7-10.4-3.2-287.5-1.9-337.2 0.2-7.4 3.5-14.6 8.9-16.3 5.7-2 12.9-2.8 20.1-2.8m0-24.1c-10.5 0-19.8 1.3-27.7 3.9-15 4.9-24.9 20.1-25.4 38.6-0.6 23.6-2.6 106.4-3.1 183.8-0.3 43.8-0.2 79 0.5 104.6 1.3 50.8 4 58.4 11 65.8 12.2 13.2 34.3 17.9 51 17.9 20.4 0 35.5-7 42.6-19.7 2.9-5.3 5-9.1 8.4-68.2 1.9-33.5 3.6-76.4 4.7-117.9 4.6-177.4-3-185.3-11.1-193.7-13.4-13.6-40-15.1-50.9-15.1z" fill="#01C700" p-id="6184"></path></svg>