<?xml version="1.0" standalone="no"?><!DOCTYPE svg PUBLIC "-//W3C//DTD SVG 1.1//EN" "http://www.w3.org/Graphics/SVG/1.1/DTD/svg11.dtd"><svg t="1698980767846" class="icon" viewBox="0 0 1024 1024" version="1.1" xmlns="http://www.w3.org/2000/svg" p-id="6325" xmlns:xlink="http://www.w3.org/1999/xlink" width="32" height="32"><path d="M688.7 616.7s-19.3 173.1-51.6 226.1c-36 59.2-162.4 82-162.4 82s148.5 17.9 196.7-36.7c48.2-54.7 17.3-271.4 17.3-271.4zM854.4 396.5s11.2 86.1-22.7 110.4c-28.8 20.7-132.2 56.3-132.2 56.3s112.7 16.9 166.9-21.8c54.3-38.7-12-144.9-12-144.9z" fill="#BBDAFF" p-id="6326"></path><path d="M847.1 562.5c-2.1 0-4.1-0.8-5.7-2.4L815.3 534c-3.1-3.1-3.1-8.2 0-11.4 3.1-3.1 8.2-3.1 11.4 0l26.1 26.1c3.1 3.1 3.1 8.2 0 11.4-1.6 1.6-3.6 2.4-5.7 2.4zM808.7 572c-2.1 0-4.1-0.8-5.7-2.4L781.3 548c-3.1-3.1-3.1-8.2 0-11.4s8.2-3.1 11.4 0l21.7 21.7c3.1 3.1 3.1 8.2 0 11.4-1.6 1.5-3.7 2.3-5.7 2.3zM767.1 576.9c-2.1 0-4.1-0.8-5.7-2.4L745 558.2c-3.1-3.1-3.1-8.2 0-11.4 3.1-3.1 8.2-3.1 11.4 0l16.4 16.4c3.1 3.1 3.1 8.2 0 11.4-1.6 1.5-3.6 2.3-5.7 2.3zM703 705c-2.1 0-4.1-0.8-5.7-2.4l-18-18c-3.1-3.1-3.1-8.2 0-11.4 3.1-3.1 8.2-3.1 11.4 0l18 18c3.1 3.1 3.1 8.2 0 11.4-1.6 1.6-3.7 2.4-5.7 2.4zM703 757c-2.1 0-4.1-0.8-5.7-2.4L673 730.3c-3.1-3.1-3.1-8.2 0-11.4 3.1-3.1 8.2-3.1 11.4 0l24.3 24.3c3.1 3.1 3.1 8.2 0 11.4-1.6 1.6-3.7 2.4-5.7 2.4zM703 803c-2.1 0-4.1-0.8-5.7-2.4l-28.5-28.5c-3.1-3.1-3.1-8.2 0-11.4 3.1-3.1 8.2-3.1 11.4 0l28.5 28.5c3.1 3.1 3.1 8.2 0 11.4-1.6 1.6-3.7 2.4-5.7 2.4zM693.9 844.2c-2.1 0-4.1-0.8-5.7-2.4l-26.4-26.4c-3.1-3.1-3.1-8.2 0-11.4 3.1-3.1 8.2-3.1 11.4 0l26.4 26.4c3.1 3.1 3.1 8.2 0 11.4-1.6 1.6-3.7 2.4-5.7 2.4zM680 882.7c-2.1 0-4.1-0.8-5.7-2.4l-29.4-29.4c-3.1-3.1-3.1-8.2 0-11.4 3.1-3.1 8.2-3.1 11.4 0l29.4 29.4c3.1 3.1 3.1 8.2 0 11.4-1.6 1.6-3.6 2.4-5.7 2.4zM653.4 912.3c-2.1 0-4.1-0.8-5.7-2.4l-32.4-32.4c-3.1-3.1-3.1-8.2 0-11.4 3.1-3.1 8.2-3.1 11.4 0l32.4 32.4c3.1 3.1 3.1 8.2 0 11.4-1.6 1.6-3.7 2.4-5.7 2.4zM614.6 927.2c-2.1 0-4.1-0.8-5.7-2.4l-27-27c-3.1-3.1-3.1-8.2 0-11.4 3.1-3.1 8.2-3.1 11.4 0l27 27c3.1 3.1 3.1 8.2 0 11.4-1.6 1.6-3.6 2.4-5.7 2.4zM568.1 933.6c-2.1 0-4.1-0.8-5.7-2.4l-19.9-19.9c-3.1-3.1-3.1-8.2 0-11.4 3.1-3.1 8.2-3.1 11.4 0l19.9 19.9c3.1 3.1 3.1 8.2 0 11.4-1.5 1.6-3.6 2.4-5.7 2.4zM875.3 539.9c-2.1 0-4.1-0.8-5.7-2.4l-25.4-25.4c-3.1-3.1-3.1-8.2 0-11.4 3.1-3.1 8.2-3.1 11.4 0l25.4 25.4c3.1 3.1 3.1 8.2 0 11.4-1.6 1.6-3.6 2.4-5.7 2.4zM891.7 506.1c-2.1 0-4.1-0.8-5.7-2.4l-23.9-23.9c-3.1-3.1-3.1-8.2 0-11.4 3.1-3.1 8.2-3.1 11.4 0l23.9 23.9c3.1 3.1 3.1 8.2 0 11.4-1.6 1.6-3.6 2.4-5.7 2.4z" fill="#0F82FF" p-id="6327"></path><path d="M517.4 103.2c13.3 0 25.9 3.1 36.4 9.3C655.5 171.9 887 384.9 877.3 502.1c-3.9 47.3-88.5 55.2-144.1 55.2-7.8 0-15-0.2-21.4-0.4h-0.9c-13.9 0-25 11.5-24.5 25.5 2.1 57.3 5.7 191.4-3.2 262.7-6.5 52.2-90.3 75.6-170.4 75.6-61.7 0-121.1-13.9-141.3-39.4-34.6-43.7-30.3-215.2-26.9-286.9 0.8-16.7-12.5-30.6-29.2-30.6h-0.7c-47.4 0-133.8-6.9-160.6-55-54.7-98.3 199.6-312.7 305.6-386.6 18.3-12.7 38.7-19 57.7-19m0-24c-24.5 0-49.8 8.3-71.4 23.3-55.6 38.7-145.8 111.1-217 187.5-40.1 43-69.2 82.2-86.6 116.5-23.1 45.4-26.2 83.8-9.4 114.1 30.9 55.7 115.8 67.3 181.6 67.3h0.8c1.8 0 3 0.9 3.7 1.6 0.7 0.7 1.5 2 1.4 3.8-1.9 40-3.6 99.6-0.8 156.3 2.4 48.2 8.4 115.8 32.9 146.7 28.4 35.8 101.4 48.6 160.2 48.6 84 0 185.3-25.3 194.3-96.7 9.2-73.4 5.4-210.9 3.4-266.6 0-0.1 0-0.2 0.1-0.4 0.1-0.1 0.2-0.1 0.3-0.1 7.5 0.3 15 0.4 22.3 0.4 39.1 0 72-3.6 97.8-10.7 54.8-15.1 68.4-44.5 70.3-66.6 3.4-40.9-15.7-114.8-126.2-234.8C709.9 198.6 623.9 125.6 566 91.7c-14.1-8.2-30.9-12.5-48.6-12.5z" fill="#0F82FF" p-id="6328"></path><path d="M334 304c-3 0-6-1.1-8.4-3.4-4.8-4.6-4.9-12.2-0.3-17l72.3-75c4.6-4.8 12.2-4.9 17-0.3 4.8 4.6 4.9 12.2 0.3 17l-72.3 75c-2.2 2.4-5.4 3.7-8.6 3.7zM279.3 356c-2.9 0-5.7-1-8-3.1-5-4.4-5.4-12-1-17l11.3-12.6c4.4-5 12-5.4 17-0.9 5 4.4 5.4 12 1 17L288.3 352c-2.4 2.7-5.7 4-9 4z" fill="#0F82FF" p-id="6329"></path></svg>