<?xml version="1.0" standalone="no"?><!DOCTYPE svg PUBLIC "-//W3C//DTD SVG 1.1//EN" "http://www.w3.org/Graphics/SVG/1.1/DTD/svg11.dtd"><svg t="1698980776726" class="icon" viewBox="0 0 1024 1024" version="1.1" xmlns="http://www.w3.org/2000/svg" p-id="6617" xmlns:xlink="http://www.w3.org/1999/xlink" width="32" height="32"><path d="M765.5 228.6s-3.9 224.4-74.8 351.9c-30.4 54.6-86.8 117.9-191.2 163.3 0 0 196 27.9 255.1-150.7 59.1-178.7 10.9-364.5 10.9-364.5z" fill="#FFDABB" p-id="6618"></path><path d="M761.7 587.8c-2.1 0-4.1-0.8-5.7-2.4l-35.8-35.8c-3.1-3.1-3.1-8.2 0-11.4 3.1-3.1 8.2-3.1 11.4 0l35.8 35.8c3.1 3.1 3.1 8.2 0 11.4-1.6 1.6-3.6 2.4-5.7 2.4zM745.8 626c-2.1 0-4.1-0.8-5.7-2.4l-36.9-36.9c-3.1-3.1-3.1-8.2 0-11.4 3.1-3.1 8.2-3.1 11.4 0l36.9 36.9c3.1 3.1 3.1 8.2 0 11.4-1.5 1.6-3.6 2.4-5.7 2.4zM725.6 656.5c-2.1 0-4.1-0.8-5.7-2.4L683 617.2c-3.1-3.1-3.1-8.2 0-11.4 3.1-3.1 8.2-3.1 11.4 0l36.9 36.9c3.1 3.1 3.1 8.2 0 11.4-1.6 1.6-3.6 2.4-5.7 2.4zM699.9 686c-2.1 0-4.1-0.8-5.7-2.4L662 651.4c-3.1-3.1-3.1-8.2 0-11.4 3.1-3.1 8.2-3.1 11.4 0l32.2 32.2c3.1 3.1 3.1 8.2 0 11.4-1.6 1.6-3.7 2.4-5.7 2.4zM671.7 710.4c-2.1 0-4.1-0.8-5.7-2.4l-29.6-29.6c-3.1-3.1-3.1-8.2 0-11.4 3.1-3.1 8.2-3.1 11.4 0l29.6 29.6c3.1 3.1 3.1 8.2 0 11.4-1.6 1.6-3.6 2.4-5.7 2.4zM639.2 730.6c-2.1 0-4.1-0.8-5.7-2.4l-25.9-25.9c-3.1-3.1-3.1-8.2 0-11.4 3.1-3.1 8.2-3.1 11.4 0l25.9 25.9c3.1 3.1 3.1 8.2 0 11.4-1.6 1.6-3.7 2.4-5.7 2.4zM600.9 748.6c-2.1 0-4.1-0.8-5.7-2.4l-24.1-24.1c-3.1-3.1-3.1-8.2 0-11.4 3.1-3.1 8.2-3.1 11.4 0l24.1 24.1c3.1 3.1 3.1 8.2 0 11.4-1.6 1.6-3.7 2.4-5.7 2.4zM769.4 537.8c-2.1 0-4.1-0.8-5.7-2.4l-29.6-29.6c-3.1-3.1-3.1-8.2 0-11.4 3.1-3.1 8.2-3.1 11.4 0l29.6 29.6c3.1 3.1 3.1 8.2 0 11.4-1.5 1.6-3.6 2.4-5.7 2.4zM784.2 496.9c-2.1 0-4.1-0.8-5.7-2.4L749 464.9c-3.1-3.1-3.1-8.2 0-11.4 3.1-3.1 8.2-3.1 11.4 0l29.6 29.6c3.1 3.1 3.1 8.2 0 11.4-1.6 1.6-3.7 2.4-5.8 2.4zM785.8 449c-2.1 0-4.1-0.8-5.7-2.4L757 423.5c-3.1-3.1-3.1-8.2 0-11.4 3.1-3.1 8.2-3.1 11.4 0l23.1 23.1c3.1 3.1 3.1 8.2 0 11.4-1.6 1.6-3.7 2.4-5.7 2.4zM785.6 405.3c-2.1 0-4.1-0.8-5.7-2.4l-23-23c-3.1-3.1-3.1-8.2 0-11.4 3.1-3.1 8.2-3.1 11.4 0l23 23c3.1 3.1 3.1 8.2 0 11.4-1.6 1.6-3.6 2.4-5.7 2.4zM792.7 853.7c-5-31.1-30.9-53.8-66-57.9-15.8-1.9-40.4-2.8-73-2.8-32.7 0-67.3 0.9-89.9 1.7v-50c-7.9 1.6-16.5 0.7-24.1 0.2v74.9s59.4-2.6 114-2.6c27.3 0 53.4 0.7 70.2 2.6 24.5 2.9 41.9 17.8 45.1 37.8 3 18.6-5.6 36.5-24.4 36.5H273.8c-12.8 0-18.6-11-19.2-23.8-1-19.6 6.9-37.7 50.5-44.6 34.1-5.3 89.1-6.4 127.3-6.4 25 0 42.8 0.5 42.8 0.5v-71.2c-8.9-0.3-16.6-1.2-24.1-4.7v51.5c-5.6 0-11.9-0.1-18.7-0.1-40.3 0-95.7 1.2-131 6.7-25.8 4-44.1 12.2-55.9 24.9-10.8 11.6-15.8 26.7-14.9 44.7 1.4 27.9 18.8 46.6 43.3 46.6h470.7c14.4 0 27.3-5.8 36.3-16.4 10.4-12.4 14.7-29.9 11.8-48.1z" fill="#FF7E00" p-id="6619"></path><path d="M875.5 275.7c-7.5-8-21.4-17.6-44.9-17.6-19.7 0-40.5 6.7-55.3 12.8-0.3 9.3-2.1 18.3-1.1 26.8 11.9-5.6 35.7-15.5 56.4-15.5 21.3 0 39.1 10.5 36.5 47.2-5.8 83.6-22.7 122.5-88.9 157.3-0.8 9.4-2.7 18.8-3.9 28.2 2.8-1 5.7-2.1 8.6-3.5 40.5-20.3 65.9-42.2 82.2-70.9 15-26.5 22.6-58.2 26.1-109.4 1.7-23.8-3.6-42.5-15.7-55.4zM247.6 487.6c-67.7-35.1-84.9-73.8-90.8-158.2-2.5-36.6 15.3-47.2 36.5-47.2 14.7 0 31 5 43.5 9.9 1-9.1 6.7-13.6 7.6-22.9-14.4-5.6-33.2-11.1-51.1-11.1-23.5 0-37.4 9.6-44.9 17.6-12 12.9-17.3 31.5-15.7 55.3 3.5 51.2 11.1 82.9 26.1 109.4 16.3 28.8 41.7 50.7 82.2 70.9 3.5 1.7 6.9 3 10.3 4.1-1.5-9.2-4.1-18.5-3.7-27.8z" fill="#FF7E00" p-id="6620"></path><path d="M515 130c60.8 0 121.6 5.6 179.8 24.6 27.4 9 48.3 31.4 55.6 59.4 45.1 172.3 24.4 399.3-69.2 471.9-41.6 32.3-102.2 49.4-164.2 49.4-98 0-199.4-42.7-234-135.5-34-91.3-41.9-284.1-20.1-385.7 7.7-36 34-54 65.5-63.9 57.7-18.1 119.5-19.7 179.4-20.1 2.4-0.1 4.8-0.1 7.2-0.1m0-24.1h-7.4c-64 0.5-126.5 2.4-186.5 21.3-45.7 14.4-73.3 41.9-81.8 81.9-23.5 109.7-13.1 307.4 21.1 399.1 18.2 48.9 54.3 88.8 104.5 115.4 44 23.4 96.6 35.7 152.1 35.7 69.2 0 134.4-19.8 179-54.4 48.8-37.9 82.8-114.1 95.7-214.6 11.7-91.1 5.2-194.1-18-282.5-9.5-36.1-36.1-64.6-71.4-76.2-53.8-17.5-113.3-25.7-187.3-25.7z" fill="#FF7E00" p-id="6621"></path><path d="M510.7 298.9c1.8 0 3.6 0.5 5.4 1.4 17.8 9.4 29 46.4 29 46.4h2.3c8.8 0 40.4 0.7 46.6 10.6 10.9 17.4-27.8 39.9-32 43 0 0 22.9 44.9 5.4 57.9-3.4 2.5-7.7 3.8-12.6 3.8-13.2 0-30.2-9-43-24.9 0 0-27.4 26.2-45.5 26.2-1.6 0-3.2-0.2-4.6-0.7-24.6-7.9-8.4-46.7 0-61.1 0 0-33.8-13.7-33.8-31.8 0-10.8 20.9-23.1 47.5-23.1 1.2 0 2.5 0 3.8 0.1 1.8 0 13.5-47.8 31.5-47.8m0-24.1c-26.7 0-40.3 28-48.1 48.5-33.8 3.9-58.7 22.9-58.7 46.5 0 19.1 13.4 33 26.6 42.2-5.1 14.3-8.8 32.7-2.7 48.7 4.6 12.1 14.1 20.9 26.6 24.9 3.8 1.2 7.8 1.8 12 1.8 15.5 0 31.9-9.1 44.2-18 13.9 10.6 29.6 16.7 44.2 16.7 10.2 0 19.5-3 27-8.5 11-8.2 22.1-25.2 12.6-59.6-0.9-3.1-1.8-6.2-2.8-9 4-3.1 8.1-6.7 12-10.6 24.4-25 15.7-45.9 10.8-53.8-5.2-8.4-16.4-19.2-52.4-21.5-6.5-15.2-17.8-35.1-34.6-44.1-5.3-2.8-10.9-4.2-16.7-4.2z" fill="#FF7E00" p-id="6622"></path><path d="M302.7 286.2c-5.8 0-10.9-4.2-11.9-10.1-5.9-36.4 0.4-64.2 18.8-82.5 29.1-29.1 76.8-21.7 78.8-21.4 6.6 1.1 11 7.3 10 13.8-1.1 6.6-7.2 11-13.8 10-0.4-0.1-37.8-5.7-58.1 14.7-12.5 12.6-16.5 33.3-11.9 61.6 1.1 6.6-3.4 12.8-10 13.8-0.6 0-1.2 0.1-1.9 0.1z" fill="#FF7E00" p-id="6623"></path></svg>