<?xml version="1.0" standalone="no"?><!DOCTYPE svg PUBLIC "-//W3C//DTD SVG 1.1//EN" "http://www.w3.org/Graphics/SVG/1.1/DTD/svg11.dtd"><svg t="1698979688106" class="icon" viewBox="0 0 1024 1024" version="1.1" xmlns="http://www.w3.org/2000/svg" p-id="3563" xmlns:xlink="http://www.w3.org/1999/xlink" width="32" height="32"><path d="M763.7 688.5s26.9 118.6-8 160.6c-60.2 72.3-142.2 77.1-180.7 76.3-38.5-0.9 140.5 64.2 212.8-20.1s-24.1-216.8-24.1-216.8zM679.4 90.4s45.4 114.6 44.2 224.8c-0.8 67.6-23.4 106.6-72.3 164.6 0 0 114.8-22.4 116.4-100.4 4-188.7-88.3-289-88.3-289z" fill="#BBEFBC" p-id="3564"></path><path d="M651.4 960.3c-17.8 0-33.4-1.6-45.7-3.5-26.5-4.1-50-20.6-62.8-44.2-40.7-75.3-60.8-228.4-72.7-319.9-2.8-21.1-5.6-42.8-7.7-54.2-19.4 3.8-64.1 12.3-126.2-1.4C260.8 520.3 223.9 386 197 288c-2.7-9.9-5.3-19.3-7.8-28-6.6-23.2-3.4-44.1 9.7-62 33.9-46.6 124.5-54.4 125.4-54.4 23-0.8 57.6-1.9 71.3 50.4 6.6 25.2 11.2 48.7 15.2 69.4 8.3 42.5 14.8 76 33.2 96 7.5 8.2 47.6 10.1 86.1 0.2 26.8-6.9 38.3-16 39.3-20.1 3.6-15.1-18.7-73-35-115.2-12.7-32.9-24.7-64-29-83.7-2.3-10.6-0.8-26.5 19.3-41.8 25.7-19.5 68.4-28.2 85.6-31.1 13.1-2.2 57.2-8.5 76.7 1.9 29.5 15.6 56.9 100.2 67.3 135.8 16.3 55.8 32 131.4 27.2 176.1-7.2 67-77.5 97.3-107.6 110.3-0.5 0.2-1 0.4-1.6 0.7 3.2 5.3 7.5 12.4 12 19.7 36 58.8 120.2 196.6 150.1 297 11.5 38.6-4.6 81.8-40 107.6-47.9 34.7-101.2 43.5-143 43.5zM470.3 513c0.5 0 1 0 1.5 0.1 11.3 0.9 13.1 12.4 15.7 28.4 1.9 11.7 4.1 28.6 6.6 48.1 11 84 31.4 240.3 70 311.6 9.2 17 26.1 28.9 45.2 31.8 37.5 5.7 109.6 8.7 171-35.9 26.7-19.5 39.5-52.9 31.1-81.2-29-97.3-112.1-233.2-147.6-291.3-17.8-29.1-19.1-31.4-19.7-35.3-1.5-10.4 7.1-14.1 20.2-19.8 26.2-11.3 87.4-37.7 93.1-90.7 8.3-77.1-51.7-272-81.8-288-16.3-8.6-102.2 1.1-136.5 27.1-12.1 9.2-10.8 15.4-10.3 17.5 3.9 17.9 15.6 48.2 27.9 80.2 25.7 66.7 41 108.6 36 129.5-4.9 20.4-33.5 31.8-56.6 37.8-33.6 8.7-90.5 13.9-109.9-7.2-22.9-25-30-61.5-39.1-107.7-4-20.4-8.5-43.4-14.9-67.9-8.8-33.5-24.8-33.1-46.8-32.4-4.4 0.4-82.3 8.7-107.8 45.5-8 11.6-9.7 24.7-5.3 40.3 2.5 8.7 5.1 18.2 7.8 28.2C242.5 363.4 280 500 341.4 513.6c57.6 12.8 97.5 5 116.7 1.2 5.7-1.1 9.2-1.8 12.2-1.8z" fill="#01C700" p-id="3565"></path><path d="M663.9 769.5c8.4 0 17.3 2.7 25.4 7.4 9.5 5.6 15.6 14.9 9.1 30.6-5.8 14.1-21.7 21.3-36.6 21.3-20.1 0-38.1-13.2-26.6-40.5 5.5-13.1 16.5-18.8 28.7-18.8m0-24.1c-23 0-42 12.5-50.9 33.5-10.8 25.6-3.2 43.1 2.2 51.3 9.4 14.2 26.8 22.6 46.6 22.6 26.6 0 49.7-14.2 58.8-36.1 10.2-24.6 2.9-47.8-19.2-60.7-12-6.9-25-10.6-37.5-10.6zM823.9 809c-2 0-4-0.7-5.5-2.2l-35.1-33.6c-3.2-3.1-3.3-8.1-0.2-11.4 3.1-3.2 8.2-3.3 11.4-0.2l35.1 33.6c3.2 3.1 3.3 8.1 0.2 11.4-1.7 1.5-3.8 2.4-5.9 2.4zM829.3 852.5c-2 0-4-0.7-5.5-2.2l-41.5-39.5c-3.2-3.1-3.3-8.1-0.3-11.4 3.1-3.2 8.1-3.3 11.4-0.3l41.5 39.5c3.2 3.1 3.3 8.1 0.3 11.4-1.7 1.7-3.8 2.5-5.9 2.5zM805.9 887.3c-2.1 0-4.1-0.8-5.7-2.4L766 850.8c-3.1-3.1-3.1-8.2 0-11.4 3.1-3.1 8.2-3.1 11.4 0l34.2 34.2c3.1 3.1 3.1 8.2 0 11.4-1.6 1.5-3.6 2.3-5.7 2.3zM775.7 917.4c-2.1 0-4.1-0.8-5.7-2.4l-32.1-32.1c-3.1-3.1-3.1-8.2 0-11.4 3.1-3.1 8.2-3.1 11.4 0l32.1 32.1c3.1 3.1 3.1 8.2 0 11.4-1.6 1.6-3.6 2.4-5.7 2.4zM747.6 941.4c-2.1 0-4.1-0.8-5.7-2.4l-32.1-32c-3.1-3.1-3.1-8.2 0-11.4 3.1-3.1 8.2-3.1 11.4 0l32.1 32.1c3.1 3.1 3.1 8.2 0 11.4-1.6 1.6-3.6 2.3-5.7 2.3zM703.5 949.5c-2.1 0-4.1-0.8-5.7-2.4L673.7 923c-3.1-3.1-3.1-8.2 0-11.4 3.1-3.1 8.2-3.1 11.4 0l24.1 24.1c3.1 3.1 3.1 8.2 0 11.4-1.6 1.6-3.7 2.4-5.7 2.4zM663.3 957.5c-2.1 0-4.1-0.8-5.7-2.4L637.5 935c-3.1-3.1-3.1-8.2 0-11.4 3.1-3.1 8.2-3.1 11.4 0l20.1 20.1c3.1 3.1 3.1 8.2 0 11.4-1.6 1.6-3.6 2.4-5.7 2.4z" fill="#01C700" p-id="3566"></path><path d="M751.6 431.6c-2.1 0-4.1-0.8-5.7-2.4l-28.1-28.1c-3.1-3.1-3.1-8.2 0-11.4 3.1-3.1 8.2-3.1 11.4 0l28.1 28.1c3.1 3.1 3.1 8.2 0 11.4-1.5 1.6-3.6 2.4-5.7 2.4zM727.8 459.1c-2.1 0-4.1-0.8-5.7-2.4l-24.1-24c-3.1-3.1-3.1-8.2 0-11.4 3.1-3.1 8.2-3.1 11.4 0l24.1 24.1c3.1 3.1 3.1 8.2 0 11.4-1.6 1.5-3.6 2.3-5.7 2.3zM691.4 471.7c-2.1 0-4.1-0.8-5.7-2.4l-12-12c-3.1-3.1-3.1-8.2 0-11.4 3.1-3.1 8.2-3.1 11.4 0l12 12c3.1 3.1 3.1 8.2 0 11.4-1.6 1.7-3.6 2.4-5.7 2.4zM771.7 399.5c-2.1 0-4.1-0.8-5.7-2.4L729.9 361c-3.1-3.1-3.1-8.2 0-11.4 3.1-3.1 8.2-3.1 11.4 0l36.1 36.1c3.1 3.1 3.1 8.2 0 11.4-1.6 1.6-3.6 2.4-5.7 2.4zM771.7 351.3c-2.1 0-4.1-0.8-5.7-2.4l-32.1-32.1c-3.1-3.1-3.1-8.2 0-11.4 3.1-3.1 8.2-3.1 11.4 0l32.1 32.1c3.1 3.1 3.1 8.2 0 11.4-1.6 1.6-3.6 2.4-5.7 2.4zM763.7 295.1c-2.1 0-4.1-0.8-5.7-2.4l-28.1-28.1c-3.1-3.1-3.1-8.2 0-11.4 3.1-3.1 8.2-3.1 11.4 0l28.1 28.1c3.1 3.1 3.1 8.2 0 11.4-1.6 1.6-3.7 2.4-5.7 2.4z" fill="#01C700" p-id="3567"></path></svg>