<?xml version="1.0" standalone="no"?><!DOCTYPE svg PUBLIC "-//W3C//DTD SVG 1.1//EN" "http://www.w3.org/Graphics/SVG/1.1/DTD/svg11.dtd"><svg t="1698980795715" class="icon" viewBox="0 0 1024 1024" version="1.1" xmlns="http://www.w3.org/2000/svg" p-id="7350" xmlns:xlink="http://www.w3.org/1999/xlink" width="32" height="32"><path d="M796.1 262.5S874.4 447.8 650.6 659c0 0 117.4-21.8 168.3-155.6s-22.8-240.9-22.8-240.9zM803.2 822.8s-10.4 90.7-101.4 107.3c0 0 11.2 45.7 85.8-7.8s15.6-99.5 15.6-99.5z" fill="#BBEFBC" p-id="7351"></path><path d="M841.5 879.7c-1.2-6.8-2.7-16-91.7-168.4-14.9-25.4-29.7-50.7-42.8-72.9-6.2 4.9-13.1 9.1-20.3 13 51.2 86.6 129 219.8 131.1 232.3 3.2 18.5-76 52.1-92.6 52.1h-0.6c-10.7-0.6-70.6-155.9-105.3-248.4-7.9 1.1-15.2 4.9-23.1 7 10.2 27.1 22.5 59.6 35.1 92 17.9 46 32.9 82.8 44.4 109.3 7.1 16.3 12.9 28.6 17.6 37.5 5.7 10.8 13.6 25.7 29.9 26.6 0.6 0 1.2 0.1 1.9 0.1 21.7 0 87.3-27.7 107.2-51.3 9.8-11.4 10.4-22 9.2-28.9z" fill="#01C700" p-id="7352"></path><path d="M496.4 88.1c52.9 0 106.5 12.9 154.8 40 98 55 176.8 158.1 175 274.2-0.2 10.4-1 20.7-2.4 31-21.7 154.3-178 264.1-330.5 264.1-32.2 0-64.2-4.9-94.8-15.3-140.3-47.8-220.7-218-196.3-359.4 12.9-74.4 52.3-133 105.5-173 53.3-40.1 120.4-61.6 188.7-61.6m0-24.1c-74.1 0-146.3 23.6-203.2 66.4-61.8 46.5-101.5 111.6-114.8 188.2-12.9 74.4 1.2 158.3 38.7 230.1 39.8 76.2 101.4 131.7 173.5 156.3 32.3 11 66.8 16.6 102.5 16.6 80 0 163.4-28.9 228.9-79.2 69.7-53.6 114.3-126.6 125.4-205.7 1.6-11.2 2.5-22.6 2.6-33.9 0.9-59.6-17.8-119.8-54.2-173.8-33.3-49.4-79.3-91.5-133.1-121.8C612.7 78.9 555.1 64 496.4 64z" fill="#01C700" p-id="7353"></path><path d="M760.9 593.4c-2.1 0-4.1-0.8-5.7-2.4l-14-14c-3.1-3.1-3.1-8.2 0-11.4 3.1-3.1 8.2-3.1 11.4 0l14.1 14.1c3.1 3.1 3.1 8.2 0 11.4-1.6 1.5-3.7 2.3-5.8 2.3zM741.1 621.9c-2.1 0-4.1-0.8-5.7-2.4l-18.2-18.2c-3.1-3.1-3.1-8.2 0-11.4 3.1-3.1 8.2-3.1 11.4 0l18.2 18.2c3.1 3.1 3.1 8.2 0 11.4-1.6 1.6-3.6 2.4-5.7 2.4zM821.1 900.7c-2.1 0-4.1-0.8-5.7-2.4l-22.1-22.1c-3.1-3.1-3.1-8.2 0-11.4s8.2-3.1 11.4 0l22.1 22.1c3.1 3.1 3.1 8.2 0 11.4-1.6 1.6-3.7 2.4-5.7 2.4zM803.2 924.9c-2.1 0-4.1-0.8-5.7-2.4l-20.8-20.8c-3.1-3.1-3.1-8.2 0-11.4 3.1-3.1 8.2-3.1 11.4 0l20.8 20.8c3.1 3.1 3.1 8.2 0 11.4-1.6 1.6-3.7 2.4-5.7 2.4zM777 938.6c-2.1 0-4.1-0.8-5.7-2.4L755.1 920c-3.1-3.1-3.1-8.2 0-11.4 3.1-3.1 8.2-3.1 11.4 0l16.2 16.2c3.1 3.1 3.1 8.2 0 11.4-1.6 1.7-3.6 2.4-5.7 2.4zM750.1 952.8c-2.1 0-4.1-0.8-5.7-2.4L730 936c-3.1-3.1-3.1-8.2 0-11.4 3.1-3.1 8.2-3.1 11.4 0l14.4 14.4c3.1 3.1 3.1 8.2 0 11.4-1.6 1.6-3.7 2.4-5.7 2.4zM782.8 564.8c-2.1 0-4.1-0.8-5.7-2.4l-16.8-16.8c-3.1-3.1-3.1-8.2 0-11.4 3.1-3.1 8.2-3.1 11.4 0l16.8 16.8c3.1 3.1 3.1 8.2 0 11.4-1.6 1.6-3.6 2.4-5.7 2.4zM806.5 536.8c-2.1 0-4.1-0.8-5.7-2.4L780 513.6c-3.1-3.1-3.1-8.2 0-11.4 3.1-3.1 8.2-3.1 11.4 0l20.8 20.8c3.1 3.1 3.1 8.2 0 11.4-1.6 1.6-3.6 2.4-5.7 2.4zM820.5 498.3c-2.1 0-4.1-0.8-5.7-2.4L797 478.1c-3.1-3.1-3.1-8.2 0-11.4 3.1-3.1 8.2-3.1 11.4 0l17.8 17.8c3.1 3.1 3.1 8.2 0 11.4-1.6 1.7-3.6 2.4-5.7 2.4zM834.6 462.8c-2.1 0-4.1-0.8-5.7-2.4L808 439.5c-3.1-3.1-3.1-8.2 0-11.4 3.1-3.1 8.2-3.1 11.4 0l20.9 20.9c3.1 3.1 3.1 8.2 0 11.4-1.6 1.6-3.7 2.4-5.7 2.4zM840.1 417.2c-2.1 0-4.1-0.8-5.7-2.4L812.5 393c-3.1-3.1-3.1-8.2 0-11.4 3.1-3.1 8.2-3.1 11.4 0l21.9 21.9c3.1 3.1 3.1 8.2 0 11.4-1.6 1.5-3.7 2.3-5.7 2.3zM500.2 163.6c39.8 0 80.1 9.7 116.5 30.1 73.7 41.4 133.1 119 131.7 206.4-0.1 7.8-0.7 15.6-1.8 23.3-16.3 116.2-134 198.8-248.7 198.8-24.2 0-48.3-3.7-71.3-11.5-105.6-36-166.1-164.1-147.7-270.5 9.7-56 39.4-100.1 79.4-130.2 40-30.3 90.5-46.4 141.9-46.4m0-24.1c-57.1 0-112.6 18.2-156.5 51.2-47.8 35.9-78.4 86.2-88.7 145.4-9.9 57.3 0.9 121.8 29.7 177 30.7 58.7 78.3 101.5 134 120.5 24.9 8.5 51.6 12.8 79.1 12.8 61.5 0 125.6-22.2 175.9-60.8 53.7-41.3 88.1-97.6 96.6-158.7 1.2-8.7 1.9-17.5 2-26.3 0.7-46.1-13.7-92.5-41.8-134.3-25.6-38-60.9-70.3-102.2-93.5-38.5-21.9-82.9-33.3-128.1-33.3zM409.1 235.8s-57.7 44.4-63.3 88.8" fill="#01C700" p-id="7354"></path><path d="M345.8 336.7c-0.5 0-1 0-1.5-0.1-6.6-0.8-11.3-6.9-10.4-13.5 6.1-48.8 65.3-94.9 67.9-96.8 5.3-4.1 12.8-3.1 16.9 2.2s3.1 12.8-2.2 16.9c-14.9 11.5-54.6 48.5-58.7 80.7-0.8 6.1-6 10.6-12 10.6z" fill="#01C700" p-id="7355"></path><path d="M333.4 412.1c-0.4 0-0.8 0-1.2-0.1-6.6-0.7-11.4-6.6-10.8-13.2l2.6-25.6c0.7-6.6 6.6-11.4 13.2-10.8 6.6 0.7 11.4 6.6 10.8 13.2l-2.6 25.6c-0.7 6.3-5.9 10.9-12 10.9z" fill="#01C700" p-id="7356"></path></svg>