<?xml version="1.0" standalone="no"?><!DOCTYPE svg PUBLIC "-//W3C//DTD SVG 1.1//EN" "http://www.w3.org/Graphics/SVG/1.1/DTD/svg11.dtd"><svg t="1698980750202" class="icon" viewBox="0 0 1024 1024" version="1.1" xmlns="http://www.w3.org/2000/svg" p-id="5742" xmlns:xlink="http://www.w3.org/1999/xlink" width="32" height="32"><path d="M829 280.5c0 164.6-20.1 481.7-100.4 546S283.1 890.7 259 896.8c0 0 357.3 94.3 562-34.1 48.2-36.2 44.2-534 8-582.2z" fill="#FFECBE" p-id="5743"></path><path d="M857.5 316.8c-3.8-23-9.3-50.1-20.5-76.1-20.1-46.8-58.5-59.1-99.4-68.4-23.5-5.4-47.7-9.6-72.9-12.9 5.5 8.7 9.1 17.4 12.1 26.1 18.7 2.8 37.2 6.1 55.4 10.3 37.2 8.5 67 18.1 82.6 54.5 9.6 22.5 14.9 46.7 18.9 70.6 10.9 65 12.1 131.6 11.1 197.3-1.6 105.1-5.2 216.9-31.8 319.4-17.5 67.4-151.6 73.1-207.5 77.9-36 3.1-72.5 4.7-109 4.7-62.4 0-125-4.9-185.7-15.9-54.1-9.9-74.1-27.9-89.8-75.7-14.9-45.4-26.5-92.4-31.6-139.7-14.4-133.2-14.4-265.7 2.1-387.4 1.6-11.7 5.1-23.1 8-34.5 9.1-34.8 39-60.9 75.5-66.6 13.6-2.1 27.4-4.2 41.3-6.2 2.1-9.2 3.9-19.2 10.9-25.8-18 2.5-36.7 5.2-56 8.2-46.3 7.3-83.6 40.4-95 84.3-0.6 2.3-1.2 4.5-1.8 6.8-2.6 9.7-5.3 19.7-6.8 30.6-16.5 121.7-17.2 254-2.2 393.2 4.9 45.5 15.6 92.8 32.7 144.6 18.9 57.3 46.2 80.5 108.4 91.9 59.4 10.8 123.4 16.3 190 16.3 36.2 0 73.5-1.6 111.1-4.8 3.8-0.3 8-0.7 12.6-1 68.4-5.4 195.6-15.4 216.2-94.8 27.1-104.5 30.9-217.9 32.5-325.1 0.9-60.6 0.3-131.8-11.4-201.8z" fill="#FFBA01" p-id="5744"></path><path d="M499.5 103.9c22.3 0 43.7 1.7 50.3 5.9 13.9 8.8 10.1 51.8 10.1 51.8s15.2-2.3 34.2-2.3c34.3 0 81.1 7.6 73.4 50.5-0.6 3.4-4.1 6-8.3 6.2l-325.1 11h-0.4c-4.1 0-7.7-2.4-8.6-5.8-4.4-16.1-0.7-55.4 90.1-55.4 5.7 0 11.7 0.2 18 0.5 0 0-6-53.2 7.4-57.5 9.1-2.9 34.6-4.9 58.9-4.9m0-24.1c-21.8 0-52.2 1.6-66.3 6.1-24.9 8-25.3 40.7-25.5 53v3c-46.8 1.1-79.1 12.9-95.9 35-15.9 20.9-12.3 42.5-10 50.8 3.8 13.8 16.9 23.4 31.8 23.4h1.2l325.1-11c15.5-0.5 28.6-11.5 31.2-26 4.4-24.6-4-41-11.9-50.3-15.8-18.9-44.5-28.5-85.2-28.5-3.4 0-6.8 0.1-10 0.2-1.5-18-6.9-36.7-21.3-45.9-4.5-2.9-15.2-9.8-63.2-9.8zM464.1 445.5c-29.3 0-62.6-0.1-100.5-0.5-14.9-0.1-27.9-10.1-31.8-24.2-8-29.1 0.9-43.2 9.8-49.8 3.9-2.9 13.1-9.8 160.5-8.9 68.5 0.4 149.8 2.7 166.5 6.9 16.4 4.1 27.1 14.7 29.2 29.1 2.2 14.7-5.4 30.1-19 38.2-4.2 2.4-15.6 9.2-214.7 9.2z m-109.1-31c1 3.8 4.6 6.4 8.8 6.5 166.3 1.5 287.6-0.8 303.1-5.7 4.8-3.2 7.8-8.8 7-13.7-0.8-5.5-6.6-8.1-11.2-9.3-24.1-6-279.8-9.4-307.3-1.4-3.4 3.5-3.5 12-0.4 23.6zM464.1 612.1c-29.3 0-62.6-0.1-100.5-0.5-14.9-0.1-27.9-10.1-31.8-24.2-8-29.1 0.9-43.2 9.8-49.8 3.9-2.9 13.1-9.8 160.5-8.9 68.5 0.4 149.8 2.7 166.5 6.9 16.4 4.1 27.1 14.7 29.2 29.1 2.2 14.7-5.4 30.1-19 38.2-4.2 2.4-15.6 9.2-214.7 9.2z m-109.1-31c1 3.8 4.6 6.4 8.8 6.5 166.3 1.5 287.6-0.8 303.1-5.7 4.8-3.2 7.8-8.8 7-13.7-0.8-5.5-6.6-8.1-11.2-9.3-24.1-6-279.8-9.4-307.3-1.4-3.4 3.5-3.5 12-0.4 23.6zM464.1 778.7c-29.3 0-62.6-0.1-100.5-0.5-14.9-0.1-27.9-10.1-31.8-24.2-8-29.1 0.9-43.2 9.8-49.8 3.9-2.9 13.1-9.8 160.5-8.9 68.5 0.4 149.8 2.7 166.5 6.9 16.4 4.1 27.1 14.7 29.2 29.1 2.2 14.7-5.4 30.1-19 38.2-4.2 2.4-15.6 9.2-214.7 9.2z m-109.1-31c1 3.8 4.6 6.4 8.8 6.5 166.3 1.5 287.6-0.8 303.1-5.7 4.8-3.2 7.8-8.8 7-13.7-0.8-5.5-6.6-8.1-11.2-9.3-24.1-6-279.8-9.4-307.3-1.4-3.4 3.5-3.5 12-0.4 23.6zM849.1 625.8c-2.1 0-4.1-0.8-5.7-2.4l-24.1-24.1c-3.1-3.1-3.1-8.2 0-11.4 3.1-3.1 8.2-3.1 11.4 0l24.1 24.1c3.1 3.1 3.1 8.2 0 11.4-1.6 1.6-3.6 2.4-5.7 2.4zM853.1 573.6c-2.1 0-4.1-0.8-5.7-2.4l-20.1-20.1c-3.1-3.1-3.1-8.2 0-11.4 3.1-3.1 8.2-3.1 11.4 0l20.1 20.1c3.1 3.1 3.1 8.2 0 11.4-1.6 1.6-3.6 2.4-5.7 2.4zM853.1 525.4c-2.1 0-4.1-0.8-5.7-2.4l-16-16c-3.1-3.1-3.1-8.2 0-11.4 3.1-3.1 8.2-3.1 11.4 0l16.1 16.1c3.1 3.1 3.1 8.2 0 11.4-1.7 1.5-3.7 2.3-5.8 2.3zM853.1 469.2c-2.1 0-4.1-0.8-5.7-2.4l-12-12c-3.1-3.1-3.1-8.2 0-11.4 3.1-3.1 8.2-3.1 11.4 0l12 12c3.1 3.1 3.1 8.2 0 11.4-1.6 1.6-3.6 2.4-5.7 2.4zM845.1 682c-2.1 0-4.1-0.8-5.7-2.4l-28.1-28.1c-3.1-3.1-3.1-8.2 0-11.4 3.1-3.1 8.2-3.1 11.4 0l28.1 28.1c3.1 3.1 3.1 8.2 0 11.4-1.6 1.6-3.6 2.4-5.7 2.4zM841.1 742.2c-2.1 0-4.1-0.8-5.7-2.4L800.6 705c-3.1-3.1-3.1-8.2 0-11.4 3.1-3.1 8.2-3.1 11.4 0l34.8 34.8c3.1 3.1 3.1 8.2 0 11.4-1.6 1.6-3.7 2.4-5.7 2.4zM817 850.6c-2.1 0-4.1-0.8-5.7-2.4L763.1 800c-3.1-3.1-3.1-8.2 0-11.4 3.1-3.1 8.2-3.1 11.4 0l48.2 48.2c3.1 3.1 3.1 8.2 0 11.4-1.6 1.6-3.6 2.4-5.7 2.4zM833.1 798.4c-2.1 0-4.1-0.8-5.7-2.4l-41.3-41.3c-3.1-3.1-3.1-8.2 0-11.4 3.1-3.1 8.2-3.1 11.4 0l41.3 41.3c3.1 3.1 3.1 8.2 0 11.4-1.6 1.6-3.7 2.4-5.7 2.4zM792.9 894.7c-2.1 0-4.1-0.8-5.7-2.4L739 844.1c-3.1-3.1-3.1-8.2 0-11.4 3.1-3.1 8.2-3.1 11.4 0l48.2 48.2c3.1 3.1 3.1 8.2 0 11.4-1.6 1.7-3.6 2.4-5.7 2.4zM740.7 918.8c-2.1 0-4.1-0.8-5.7-2.4l-44.2-44.2c-3.1-3.1-3.1-8.2 0-11.4 3.1-3.1 8.2-3.1 11.4 0l44.2 44.2c3.1 3.1 3.1 8.2 0 11.4-1.6 1.6-3.6 2.4-5.7 2.4zM676.5 930.9c-2.1 0-4.1-0.8-5.7-2.4l-40.1-40.1c-3.1-3.1-3.1-8.2 0-11.4 3.1-3.1 8.2-3.1 11.4 0l40.1 40.1c3.1 3.1 3.1 8.2 0 11.4-1.6 1.6-3.6 2.4-5.7 2.4zM608.2 938.9c-2.1 0-4.1-0.8-5.7-2.4l-36.1-36.1c-3.1-3.1-3.1-8.2 0-11.4 3.1-3.1 8.2-3.1 11.4 0l36.1 36.1c3.1 3.1 3.1 8.2 0 11.4-1.5 1.6-3.6 2.4-5.7 2.4zM536 942.9c-2.1 0-4.1-0.8-5.7-2.4l-32.1-32.1c-3.1-3.1-3.1-8.2 0-11.4 3.1-3.1 8.2-3.1 11.4 0l32.1 32.1c3.1 3.1 3.1 8.2 0 11.4-1.6 1.6-3.7 2.4-5.7 2.4zM471.8 942.9c-2.1 0-4.1-0.8-5.7-2.4l-28.1-28c-3.1-3.1-3.1-8.2 0-11.4 3.1-3.1 8.2-3.1 11.4 0l28.1 28.1c3.1 3.1 3.1 8.2 0 11.4-1.6 1.5-3.7 2.3-5.7 2.3z" fill="#FFBA01" p-id="5745"></path></svg>