<?xml version="1.0" standalone="no"?><!DOCTYPE svg PUBLIC "-//W3C//DTD SVG 1.1//EN" "http://www.w3.org/Graphics/SVG/1.1/DTD/svg11.dtd"><svg t="1698980738968" class="icon" viewBox="0 0 1024 1024" version="1.1" xmlns="http://www.w3.org/2000/svg" p-id="5304" xmlns:xlink="http://www.w3.org/1999/xlink" width="32" height="32"><path d="M839.9 284.2s29.5 52.1 29.7 139.8c0.3 178-123.2 331.5-295.6 376.1-126.6 32.7-247 19.1-359.1-1.3 50.3 31 274.7 108.3 576.6 0 178-131.6 139.3-506.9 48.4-514.6z" fill="#FFDABB" p-id="5305"></path><path d="M356 174.7c16.4 0 32.6 1.4 48.6 4.5 36.4 7.1 68.4 28.4 89.9 58.7 14.4 20.2 30.2 43.8 61.4 43.8 21.7 0 43.1-4.9 64.7-6.5 29.5-2.1 60.7-4.6 91.2-4.6 83.4 0 162 18.6 189.3 114.2 25.2 88.4 1.6 186.3-24.4 271.9-1.7 5.5-3.5 10.9-5.6 16.3-41.4 108.2-152.2 145.5-257 162.3-50.5 8.1-103.2 14-155.6 14-73.8 0-147.2-11.7-213.2-45.5-70.6-36.1-103.6-110-116.3-184.8-22.2-130.1-49.8-381 116.7-427.4 35.4-9.8 73.1-16.9 110.3-16.9m0-23.3c-35.3 0-73.5 5.8-116.6 17.9-44.5 12.4-79.8 38.7-104.9 77.9-20.6 32.3-34.4 74-41 123.7-8.9 67.9-4.8 150.4 12.5 252 16.6 97.3 61.1 167 128.7 201.5 63.2 32.3 136.4 48 223.7 48 47.3 0 99.4-4.7 159.3-14.3 65.6-10.6 117.8-26.7 159.6-49.4 55.7-30.2 94.5-73.1 115.3-127.5 2.2-5.7 4.2-11.7 6.1-17.9 28.4-93.3 51-192.3 24.5-285-33.5-117.5-136.8-131.1-211.6-131.1-28.5 0-57 2.1-84.6 4.1l-8.3 0.6c-9.5 0.7-18.7 1.9-27.7 3.1-12.4 1.7-24.1 3.3-35.4 3.3-17.5 0-27.1-12.3-41.2-32.3l-1.2-1.7c-25.3-35.6-62.3-59.8-104.3-68-16.6-3.2-34.4-4.9-52.9-4.9z" fill="#FF7E00" p-id="5306"></path><path d="M590.9 412.2c-236 0-477.4-11.8-481-12L111 377c5.4 0.3 547.6 26.7 799.2 0l2.4 23.1c-84.9 9.1-202.6 12.1-321.7 12.1zM915.3 524.1c-2 0-4-0.8-5.5-2.3l-19.3-19.3c-3-3-3-7.9 0-10.9s7.9-3 10.9 0l19.3 19.3c3 3 3 7.9 0 10.9-1.4 1.5-3.4 2.3-5.4 2.3zM919.2 481.5c-2 0-4-0.8-5.5-2.3l-15.5-15.5c-3-3-3-7.9 0-10.9s7.9-3 10.9 0l15.5 15.5c3 3 3 7.9 0 10.9-1.5 1.5-3.4 2.3-5.4 2.3zM907.6 570.5c-2 0-4-0.8-5.5-2.3L878.9 545c-3-3-3-7.9 0-10.9s7.9-3 10.9 0l23.2 23.2c3 3 3 7.9 0 10.9-1.5 1.5-3.4 2.3-5.4 2.3zM896 609.2c-2 0-4-0.8-5.5-2.3l-23.3-23.3c-3-3-3-7.9 0-10.9s7.9-3 10.9 0l23.3 23.3c3 3 3 7.9 0 10.9-1.5 1.5-3.4 2.3-5.4 2.3zM884.4 647.9c-2 0-4-0.8-5.5-2.3l-27.1-27.1c-3-3-3-7.9 0-10.9s7.9-3 10.9 0l27.1 27.1c3 3 3 7.9 0 10.9-1.5 1.5-3.5 2.3-5.4 2.3zM872.8 690.5c-2 0-4-0.8-5.5-2.3l-34.8-34.8c-3-3-3-7.9 0-10.9s7.9-3 10.9 0l34.8 34.8c3 3 3 7.9 0 10.9-1.5 1.5-3.5 2.3-5.4 2.3zM857.3 729.2c-2 0-4-0.8-5.5-2.3L810.9 686c-3-3-3-7.9 0-10.9s7.9-3 10.9 0l40.9 40.9c3 3 3 7.9 0 10.9-1.5 1.5-3.4 2.3-5.4 2.3zM834.1 764c-2 0-4-0.8-5.5-2.3l-50.3-50.3c-3-3-3-7.9 0-10.9s7.9-3 10.9 0l50.3 50.3c3 3 3 7.9 0 10.9-1.5 1.5-3.5 2.3-5.4 2.3zM799.2 791.1c-2 0-4-0.8-5.5-2.3l-49.5-49.5c-3-3-3-7.9 0-10.9s7.9-3 10.9 0l49.5 49.5c3 3 3 7.9 0 10.9-1.4 1.5-3.4 2.3-5.4 2.3zM760.5 814.3c-2 0-4-0.8-5.5-2.3l-46.4-46.4c-3-3-3-7.9 0-10.9s7.9-3 10.9 0l46.4 46.4c3 3 3 7.9 0 10.9-1.4 1.5-3.4 2.3-5.4 2.3zM714.1 829.8c-2 0-4-0.8-5.5-2.3L666 784.9c-3-3-3-7.9 0-10.9s7.9-3 10.9 0l42.6 42.6c3 3 3 7.9 0 10.9-1.4 1.5-3.4 2.3-5.4 2.3zM671.5 845.2c-2 0-4-0.8-5.5-2.3l-38.7-38.7c-3-3-3-7.9 0-10.9s7.9-3 10.9 0L677 832c3 3 3 7.9 0 10.9-1.5 1.6-3.5 2.3-5.5 2.3zM621.2 849.1c-2 0-4-0.8-5.5-2.3l-31-31c-3-3-3-7.9 0-10.9s7.9-3 10.9 0l31 31c3 3 3 7.9 0 10.9-1.4 1.6-3.4 2.3-5.4 2.3zM567.1 853c-2 0-4-0.8-5.5-2.3l-23.2-23.2c-3-3-3-7.9 0-10.9s7.9-3 10.9 0l23.2 23.2c3 3 3 7.9 0 10.9-1.5 1.5-3.5 2.3-5.4 2.3zM516.8 860.7c-2 0-4-0.8-5.5-2.3l-23.2-23.2c-3-3-3-7.9 0-10.9s7.9-3 10.9 0l23.2 23.2c3 3 3 7.9 0 10.9-1.5 1.6-3.5 2.3-5.4 2.3zM458.7 864.6c-2 0-4-0.8-5.5-2.3L430 839.1c-3-3-3-7.9 0-10.9s7.9-3 10.9 0l23.2 23.2c3 3 3 7.9 0 10.9-1.4 1.5-3.4 2.3-5.4 2.3z" fill="#FF7E00" p-id="5307"></path></svg>