<?xml version="1.0" standalone="no"?><!DOCTYPE svg PUBLIC "-//W3C//DTD SVG 1.1//EN" "http://www.w3.org/Graphics/SVG/1.1/DTD/svg11.dtd"><svg t="1698980759976" class="icon" viewBox="0 0 1024 1024" version="1.1" xmlns="http://www.w3.org/2000/svg" p-id="6030" xmlns:xlink="http://www.w3.org/1999/xlink" width="32" height="32"><path d="M868.9 347.9c-0.3 83-5.8 166.9-18 248.9-8.3 55.7-18.4 115.5-56.6 159.5-33.6 38.7-81.8 60.4-130.1 74.4-32.4 9.4-65.6 15.8-98.9 20.9-16.3 2.5-32.7 4.7-49.1 6.6-13.8 1.7-30.1 6.2-44 5.8 94.6 3.1 208.8 2.7 301.6-17.7 30-6.6 80.5-16.9 93.7-49.5 32.5-80.3 46.5-422.5 1.4-448.9z" fill="#FFECBE" p-id="6031"></path><path d="M607.9 236.4c-61.6 1.2-124.9 3.5-193.5 7.3-0.3 0-0.6 0-0.9 0.1v24.1c0.8 0 1.5-0.1 2.3-0.1 64.3-3.5 128.6-6 192.6-7.2h1.8v-24.1c-0.8-0.2-1.6-0.1-2.3-0.1z" fill="#FFBA01" p-id="6032"></path><path d="M892.3 342.3c-5.6-23.5-17.5-44.8-33.6-60-18.8-17.7-42.8-25.2-63.7-30.2-27.5-6.7-57.5-11.4-89.1-13.9-1.1-0.1-2.3-0.1-3.4-0.2 0 8-0.2 16-1.1 24.1 0.8 0.1 1.7 0.1 2.5 0.2 28.8 2.3 57.5 6.5 85.5 13.4 19 4.5 38.4 10.8 52.8 24.3 13.4 12.6 22.4 30 26.7 48 17.5 74.2 15.3 134.4 13.5 202.7-1.7 65.7-4 132.5-16.1 200.7-12 68.1-76.2 85.4-135.9 92.4-88.9 10.5-177.7 16.3-267.3 17.7-8.8 0.1-17.5 0.2-26.3 0.2-31.5 0-63-0.9-94.5-2.9-32.4-2-66-3.4-97.3-13.1-38.3-11.9-67-38.1-77.6-77.4-19.7-73.1-26.5-142.6-27-215.4-0.5-69.2 3.3-142.7 17.9-207.5 3.7-16.3 12.7-41 26.4-51 4.2-3.1 9.1-5.4 14.5-7.2 34.9-11.6 72.3-10.2 108.5-12.7 5.6-0.4 11.1-0.8 16.7-1.1-2.1-8-5.8-15.5-2.8-23.9-5.2 0.4-10.4 0.7-15.5 1.1-8.1 0.6-16.3 0.9-24.9 1.3-29.3 1.3-59.6 2.6-89.6 12.6-8.2 2.7-15.2 6.2-21.1 10.6-22.6 16.6-32.5 51.1-35.7 65.1-13.1 57.8-19.1 127.5-18.5 213 0.6 82.8 9.4 153.2 27.8 221.5 12.3 45.7 45.6 79.1 93.7 94.1 31.5 9.8 63.8 11.8 95 13.7l7.9 0.5c31 2 63.3 2.9 96 2.9 8.8 0 17.7-0.1 26.6-0.2 90.5-1.4 181.3-7.4 269.7-17.9 38.3-4.5 140-16.5 156.8-112.1 12-67.8 14.5-132.6 16.4-204.3l0.2-6c2-66 3.7-128-14.1-203.1z" fill="#FFBA01" p-id="6033"></path><path d="M372.9 162.4c7.9 0 15.7 2.7 19.8 11.7 10.1 22.3 17 168.5-8.8 170.2-5 0.3-9.5 0.5-13.6 0.5-17.2 0-26.8-3.5-27.6-15-1-14.3-12.6-145.8 6.5-161.4 0-0.1 11.9-6 23.7-6m0-24.1c-16.6 0-31.6 7-34.4 8.5L336 148l-2.1 1.7c-13.8 11.3-26.4 34.3-15.6 176.8 0.2 2.2 0.3 3.9 0.4 4.9 1 14.3 8.4 25.6 21 31.8 7.9 3.9 17.4 5.7 30.7 5.7 4.4 0 9.3-0.2 15.2-0.6 6.3-0.4 18.1-3.3 26.7-17.5 9.9-16.6 14.5-49.5 13.6-98-0.1-6.8-1.5-67.5-11.1-88.7-7.6-16.4-22.8-25.8-41.9-25.8zM658.4 162.5c8.3 0 16.5 2.8 20.5 12.2 9.5 22.6 12.2 168.9-13.6 169.9-3.3 0.1-6.4 0.2-9.4 0.2-19.9 0-30.9-3.4-31.4-15.9-0.6-14.3-8.5-146.1 11-161.2 0.1 0.1 11.5-5.2 22.9-5.2m0-24.1c-15.9 0-30.3 6.3-33 7.5l-2.5 1.1-2.2 1.7c-14.1 11-27.4 33.6-20.6 176.3 0.1 2.2 0.2 3.9 0.2 4.9 0.6 15.1 8.8 27.4 22.6 33.6 8.2 3.7 18.4 5.4 32.9 5.4 3.1 0 6.5-0.1 10.3-0.2 6.3-0.2 18.2-2.7 27.1-16.7 10.4-16.3 15.9-49.1 16.3-97.5 0.1-6.9 0.4-67.6-8.6-89-7-17.2-22.5-27.1-42.5-27.1zM310.9 466.2c15.9 0 31.4 3.6 36.3 16.4 11 29.2-2.2 63.7-11 69-4.8 2.9-21 5-36.4 5-12.7 0-24.9-1.4-29.9-5-11-8-6.6-77 0-79.7 0 0.2 20.8-5.7 41-5.7m0-24c-23.3 0-46.5 6.4-47.5 6.7l-1.2 0.4-1.2 0.5c-15.1 6-18.2 22-20.1 37.8-1.6 13-2.1 28.4-1.4 41.1 1.3 22.5 6.2 35.3 16.4 42.6 5.7 4.1 16.5 9.6 43.9 9.6 10.4 0 36.1-0.8 48.8-8.5 21.4-12.9 35.3-60.7 21.2-98.2-10.6-27.9-41.5-32-58.9-32zM515.6 466.2c15.9 0 31.4 3.6 36.3 16.4 11 29.2-2.2 63.7-11 69-4.8 2.9-21 5-36.4 5-12.7 0-24.9-1.4-29.9-5-11-8-6.6-77 0-79.7 0 0.2 20.8-5.7 41-5.7m0-24c-23.3 0-46.5 6.4-47.5 6.7l-1.2 0.4-1.2 0.5c-15.1 6-18.2 22-20.1 37.8-1.6 13-2.1 28.4-1.4 41.1 1.3 22.5 6.2 35.3 16.4 42.6 5.7 4.1 16.5 9.6 43.9 9.6 10.4 0 36.1-0.8 48.8-8.5 21.4-12.9 35.3-60.7 21.2-98.2-10.6-27.9-41.4-32-58.9-32zM720.4 466.2c15.9 0 31.4 3.6 36.3 16.4 11 29.2-2.2 63.7-11 69-4.8 2.9-21 5-36.4 5-12.7 0-24.9-1.4-29.9-5-11-8-6.6-77 0-79.7 0 0.2 20.7-5.7 41-5.7m0-24c-23.3 0-46.5 6.4-47.5 6.7l-1.2 0.4-1.2 0.5c-15.1 6-18.2 22-20.1 37.8-1.6 13-2.1 28.4-1.4 41.1 1.3 22.5 6.2 35.3 16.4 42.6 5.7 4.1 16.5 9.6 43.9 9.6 10.4 0 36.1-0.8 48.8-8.5 21.4-12.9 35.3-60.7 21.2-98.2-10.6-27.9-41.5-32-58.9-32zM310.9 662.9c15.9 0 31.4 3.6 36.3 16.4 11 29.2-2.2 63.7-11 69-4.8 2.9-21 5-36.4 5-12.7 0-24.9-1.4-29.9-5-11-8-6.6-77 0-79.7 0 0.2 20.8-5.7 41-5.7m0-24c-23.3 0-46.5 6.4-47.5 6.7l-1.2 0.4-1.2 0.5c-15.1 6-18.2 22-20.1 37.8-1.6 13-2.1 28.4-1.4 41.1 1.3 22.5 6.2 35.3 16.4 42.6 5.7 4.1 16.5 9.6 43.9 9.6 10.4 0 36.1-0.8 48.8-8.5 21.4-12.9 35.3-60.7 21.2-98.2-10.6-27.9-41.5-32-58.9-32zM515.6 662.9c15.9 0 31.4 3.6 36.3 16.4 11 29.2-2.2 63.7-11 69-4.8 2.9-21 5-36.4 5-12.7 0-24.9-1.4-29.9-5-11-8-6.6-77 0-79.7 0 0.2 20.8-5.7 41-5.7m0-24c-23.3 0-46.5 6.4-47.5 6.7l-1.2 0.4-1.2 0.5c-15.1 6-18.2 22-20.1 37.8-1.6 13-2.1 28.4-1.4 41.1 1.3 22.5 6.2 35.3 16.4 42.6 5.7 4.1 16.5 9.6 43.9 9.6 10.4 0 36.1-0.8 48.8-8.5 21.4-12.9 35.3-60.7 21.2-98.2-10.6-27.9-41.4-32-58.9-32zM720.4 662.9c15.9 0 31.4 3.6 36.3 16.4 11 29.2-2.2 63.7-11 69-4.8 2.9-21 5-36.4 5-12.7 0-24.9-1.4-29.9-5-11-8-6.6-77 0-79.7 0 0.2 20.7-5.7 41-5.7m0-24c-23.3 0-46.5 6.4-47.5 6.7l-1.2 0.4-1.2 0.5c-15.1 6-18.2 22-20.1 37.8-1.6 13-2.1 28.4-1.4 41.1 1.3 22.5 6.2 35.3 16.4 42.6 5.7 4.1 16.5 9.6 43.9 9.6 10.4 0 36.1-0.8 48.8-8.5 21.4-12.9 35.3-60.7 21.2-98.2-10.6-27.9-41.5-32-58.9-32zM845.2 810c-2.1 0-4.1-0.8-5.7-2.3l-34.6-34.6c-3.1-3.1-3.1-8.2 0-11.4 3.1-3.1 8.2-3.1 11.4 0l34.6 34.6c3.1 3.1 3.1 8.2 0 11.4-1.6 1.5-3.7 2.3-5.7 2.3zM819.7 843.8c-2.1 0-4.1-0.8-5.7-2.3L776.5 804c-3.1-3.1-3.1-8.2 0-11.4 3.1-3.1 8.2-3.1 11.4 0l37.5 37.5c3.1 3.1 3.1 8.2 0 11.4-1.6 1.5-3.7 2.3-5.7 2.3zM774 858.2c-2.1 0-4.1-0.8-5.7-2.3l-29.1-29.1c-3.1-3.1-3.1-8.2 0-11.4 3.1-3.1 8.2-3.1 11.4 0l29.1 29.1c3.1 3.1 3.1 8.2 0 11.4-1.6 1.5-3.6 2.3-5.7 2.3zM729.4 864.2c-2.1 0-4.1-0.8-5.7-2.3l-24.3-24.3c-3.1-3.1-3.1-8.2 0-11.4 3.1-3.1 8.2-3.1 11.4 0l24.3 24.3c3.1 3.1 3.1 8.2 0 11.4-1.6 1.5-3.6 2.3-5.7 2.3zM685.6 872.8c-2.1 0-4.1-0.8-5.7-2.3L655.4 846c-3.1-3.1-3.1-8.2 0-11.4 3.1-3.1 8.2-3.1 11.4 0l24.5 24.5c3.1 3.1 3.1 8.2 0 11.4-1.6 1.5-3.6 2.3-5.7 2.3zM634.1 877c-2.1 0-4.1-0.8-5.7-2.3l-19.1-19.1c-3.1-3.1-3.1-8.2 0-11.4 3.1-3.1 8.2-3.1 11.4 0l19.1 19.1c3.1 3.1 3.1 8.2 0 11.4-1.6 1.5-3.7 2.3-5.7 2.3zM872.5 776.2c-2.1 0-4.1-0.8-5.7-2.3l-36.2-36.2c-3.1-3.1-3.1-8.2 0-11.4 3.1-3.1 8.2-3.1 11.4 0l36.2 36.2c3.1 3.1 3.1 8.2 0 11.4-1.6 1.5-3.6 2.3-5.7 2.3zM883.6 733.3c-2.1 0-4.1-0.8-5.7-2.3l-32.3-32.3c-3.1-3.1-3.1-8.2 0-11.4 3.1-3.1 8.2-3.1 11.4 0l32.3 32.3c3.1 3.1 3.1 8.2 0 11.4-1.6 1.5-3.6 2.3-5.7 2.3z" fill="#FFBA01" p-id="6034"></path><path d="M890.2 689.5c-2.1 0-4.1-0.8-5.7-2.3L853 655.7c-3.1-3.1-3.1-8.2 0-11.4 3.1-3.1 8.2-3.1 11.4 0l31.4 31.4c3.1 3.1 3.1 8.2 0 11.4-1.5 1.6-3.6 2.4-5.6 2.4z" fill="#FFBA01" p-id="6035"></path><path d="M892.6 643.9c-2.1 0-4.1-0.8-5.7-2.3l-28.8-28.8c-3.1-3.1-3.1-8.2 0-11.4 3.1-3.1 8.2-3.1 11.4 0l28.8 28.8c3.1 3.1 3.1 8.2 0 11.4-1.5 1.6-3.6 2.3-5.7 2.3z" fill="#FFBA01" p-id="6036"></path><path d="M894.6 596.5c-2.1 0-4.1-0.8-5.7-2.3l-27.7-27.7c-3.1-3.1-3.1-8.2 0-11.4 3.1-3.1 8.2-3.1 11.4 0l27.7 27.7c3.1 3.1 3.1 8.2 0 11.4-1.6 1.5-3.7 2.3-5.7 2.3z" fill="#FFBA01" p-id="6037"></path><path d="M896.5 556.5c-2.1 0-4.1-0.8-5.7-2.3l-25.5-25.5c-3.1-3.1-3.1-8.2 0-11.4 3.1-3.1 8.2-3.1 11.4 0l25.5 25.5c3.1 3.1 3.1 8.2 0 11.4-1.6 1.5-3.7 2.3-5.7 2.3z" fill="#FFBA01" p-id="6038"></path><path d="M896.7 516.9c-2.1 0-4.1-0.8-5.7-2.3l-21-21c-3.1-3.1-3.1-8.2 0-11.4 3.1-3.1 8.2-3.1 11.4 0l21 21c3.1 3.1 3.1 8.2 0 11.4-1.5 1.5-3.6 2.3-5.7 2.3z" fill="#FFBA01" p-id="6039"></path></svg>