<?xml version="1.0" standalone="no"?><!DOCTYPE svg PUBLIC "-//W3C//DTD SVG 1.1//EN" "http://www.w3.org/Graphics/SVG/1.1/DTD/svg11.dtd"><svg t="1698980711774" class="icon" viewBox="0 0 1024 1024" version="1.1" xmlns="http://www.w3.org/2000/svg" p-id="4436" xmlns:xlink="http://www.w3.org/1999/xlink" width="32" height="32"><path d="M894.7 408.2s-8 151.5-108.6 262.6c-94 103.7-218.8 154.6-218.8 154.6S744.7 824 834 691.5s93.7-275 60.7-283.3z" fill="#BBDAFF" p-id="4437"></path><path d="M820.2 708.8c-2.1 0-4.1-0.8-5.7-2.4l-18.6-18.6c-3.1-3.1-3.1-8.2 0-11.4 3.1-3.1 8.2-3.1 11.4 0l18.6 18.6c3.1 3.1 3.1 8.2 0 11.4-1.6 1.7-3.7 2.4-5.7 2.4zM797.1 738.3c-2.1 0-4.1-0.8-5.7-2.4l-22.1-22.1c-3.1-3.1-3.1-8.2 0-11.4 3.1-3.1 8.2-3.1 11.4 0l22.1 22.1c3.1 3.1 3.1 8.2 0 11.4-1.6 1.6-3.6 2.4-5.7 2.4zM771.1 761c-2.1 0-4.1-0.8-5.7-2.4L746 739.2c-3.1-3.1-3.1-8.2 0-11.4 3.1-3.1 8.2-3.1 11.4 0l19.4 19.4c3.1 3.1 3.1 8.2 0 11.4-1.5 1.6-3.6 2.4-5.7 2.4zM746.9 782.1c-2.1 0-4.1-0.8-5.7-2.4l-20.1-20.1c-3.1-3.1-3.1-8.2 0-11.4 3.1-3.1 8.2-3.1 11.4 0l20.1 20.1c3.1 3.1 3.1 8.2 0 11.4-1.6 1.6-3.7 2.4-5.7 2.4zM710.9 801.3c-2.1 0-4.1-0.8-5.7-2.4l-18.8-18.8c-3.1-3.1-3.1-8.2 0-11.4 3.1-3.1 8.2-3.1 11.4 0l18.8 18.8c3.1 3.1 3.1 8.2 0 11.4-1.6 1.6-3.6 2.4-5.7 2.4zM675.7 812.7c-2.1 0-4.1-0.8-5.7-2.4l-16.8-16.8c-3.1-3.1-3.1-8.2 0-11.4 3.1-3.1 8.2-3.1 11.4 0l16.8 16.8c3.1 3.1 3.1 8.2 0 11.4-1.6 1.6-3.6 2.4-5.7 2.4zM843.2 681.1c-2.1 0-4.1-0.8-5.7-2.4L819 660.2c-3.1-3.1-3.1-8.2 0-11.4 3.1-3.1 8.2-3.1 11.4 0l18.5 18.5c3.1 3.1 3.1 8.2 0 11.4-1.6 1.6-3.6 2.4-5.7 2.4zM860.7 651.5c-2.1 0-4.1-0.8-5.7-2.4l-17.3-17.3c-3.1-3.1-3.1-8.2 0-11.4 3.1-3.1 8.2-3.1 11.4 0l17.3 17.3c3.1 3.1 3.1 8.2 0 11.4-1.6 1.6-3.6 2.4-5.7 2.4zM880.7 619.5c-2.1 0-4.1-0.8-5.7-2.4l-16.8-16.8c-3.1-3.1-3.1-8.2 0-11.4 3.1-3.1 8.2-3.1 11.4 0l16.8 16.8c3.1 3.1 3.1 8.2 0 11.4-1.6 1.6-3.7 2.4-5.7 2.4zM897.8 579.8c-2.1 0-4.1-0.8-5.7-2.4l-16.8-16.8c-3.1-3.1-3.1-8.2 0-11.4 3.1-3.1 8.2-3.1 11.4 0l16.8 16.8c3.1 3.1 3.1 8.2 0 11.4-1.6 1.6-3.6 2.4-5.7 2.4z" fill="#0F82FF" p-id="4438"></path><path d="M492.3 106.7c114.7 0 231.5 45.4 311.5 125.2 47.8 47.7 79.2 109.9 90.8 176.3 11.4 64.9 4.3 132.8-19.8 194C841.2 688 755 766.6 691.6 790.3c-38.4 14.4-115.4 29-130.1 30.5l-44.3 96.6s-60.9-97.2-61-97.3c-13.1-3-54.2-8.8-67.2-11.5-46-9.5-91.4-26.6-129.9-53.9-33-23.5-61.6-53.1-83.5-87.2-18.4-28.7-31.9-60.4-40.2-93.5-32.7-131.9 4.5-280.7 105.2-374.1 69.2-64 159.8-93.2 251.7-93.2m0.1-24.1v24.1-24.1c-103.5 0-198.7 35.4-268 99.7-104.1 96.5-148.2 252.5-112.2 397.6 9 36.2 23.6 70 43.3 100.7 23.5 36.6 53.7 68.1 89.8 93.8 38.4 27.3 85.1 46.7 139 57.8 6.3 1.3 18 3.2 30.4 5.1 9.2 1.5 19.2 3.1 26.8 4.4 11.1 17.7 37 59 55.4 88.4 4.4 7.1 12.2 11.3 20.4 11.3 0.5 0 1 0 1.6-0.1 8.8-0.6 16.6-5.9 20.3-14 0 0 27-58.9 38.8-84.7 29.5-5 89.1-17.5 122.1-29.8C768 787.4 860.4 705 897.3 611c26-66 33.3-137.6 21.1-207-12.6-71.8-47.2-139-97.6-189.2C737.8 132 615 82.6 492.4 82.6z" fill="#0F82FF" p-id="4439"></path><path d="M520.7 780.4c-20.3 0-37.7-10.6-45-28.4-7.7-18.8-0.9-39.1 7.3-50.8 6.7-9.6 16.4-16.3 28.1-19.5 16.2-4.4 34-0.9 46.5 9 12.1 9.5 18.4 24 17.9 40.7-0.8 27.7-22.7 44-44 47.9-3.5 0.8-7.2 1.1-10.8 1.1z m4.8-76.5c-2.7 0-5.4 0.3-8 1.1-4.3 1.2-10.4 3.8-14.7 10-5.1 7.3-8.4 19.1-4.8 27.8 5.1 12.5 19 14.7 29.4 12.8 10.9-2 23.8-9.7 24.2-24.9 0.3-9.1-2.8-16.4-8.8-21.1-4.7-3.7-10.9-5.7-17.3-5.7z m-11.2-10.5zM525.2 650.7c-11.5 0-23.4-3.9-32.9-11.6-18-14.7-24.2-37.2-26.1-53.4-6.7-55.6 20.2-107.7 44-153.7 4.1-8 8.2-15.8 12-23.6 0 0 0-0.1 0.1-0.1-4.5 1.3-9.2 3.2-13.8 5l-1.6 0.7c-6.1 2.5-12.1 5.3-18.4 8.4-8.5 4.1-17.3 8.3-26.5 11.5-34.1 11.9-65.3 16.8-95.2 14.9-23.6-1.5-43.6-14.8-56.4-37.5-17.5-31.2-18.9-77.1-3.3-106.7 3.5-6.7 7.9-13.2 13-19.2 28.5-33.7 76.6-49.8 115.2-60.2 48.7-13 95.3-15.2 138.4-6.6 35.5 7.1 84.2 28.6 104.6 66.1 11.5 21 12.5 44.7 3.1 68.6-10.8 27.2-31 37.4-48.9 46.4-8.9 4.4-17.2 8.7-25 14.8-12.1 9.5-16.8 27.2-20.2 43.1-9.2 42.6-14.5 86.3-15.7 129.8-0.4 15.8-1.1 37.5-15.9 51.8-8 7.7-19.1 11.5-30.5 11.5z m4.1-267.9c9.1 0 13.8 4.6 16 7.5 5 7 4.5 16.7-1.4 28.7-3.9 7.9-8 15.9-12.2 23.9-23.3 45-47.3 91.6-41.5 139.8 1.4 11.9 5.6 28 17.4 37.7 8.4 6.9 23.4 9.2 31.3 1.5 7.8-7.5 8.2-22.2 8.6-35.2 1.3-45 6.7-90.2 16.2-134.2 4.6-21.5 11.3-43.2 28.9-57 9.7-7.6 19.6-12.6 29.1-17.4 16.7-8.4 30-15 37.3-33.7 6.9-17.4 6.3-33.2-1.9-48.2-15.4-28.3-55.4-47.5-88.2-54-38.9-7.7-83-5.6-127.5 6.3-35.3 9.4-78.8 23.9-103 52.4-4 4.7-7.3 9.7-10.1 14.8-11.9 22.7-10.6 59.4 3 83.7 6.1 10.8 17.4 24 36.9 25.2 26.7 1.7 54.7-2.8 85.8-13.6 8-2.8 15.8-6.5 24-10.5 6.4-3.1 13-6.3 19.8-9l1.6-0.6c7.8-3.2 16.7-6.7 26.1-7.9 1.3-0.1 2.6-0.2 3.8-0.2z m-200.1-89.7z" fill="#0F82FF" p-id="4440"></path></svg>