<?xml version="1.0" standalone="no"?><!DOCTYPE svg PUBLIC "-//W3C//DTD SVG 1.1//EN" "http://www.w3.org/Graphics/SVG/1.1/DTD/svg11.dtd"><svg t="1698980731718" class="icon" viewBox="0 0 1024 1024" version="1.1" xmlns="http://www.w3.org/2000/svg" p-id="5016" xmlns:xlink="http://www.w3.org/1999/xlink" width="32" height="32"><path d="M857.3 292.3s32.1 88.3 5.9 258.5c-16.5 107.1-38 147.1-137.5 199.7-43.9 23.2-104.5 36.1-153.8 47.3-66.2 15.1-121.2 27.6-304.6 44.2 59.6 4.2 527.2 20.8 582.2-41.6s117.8-379.1 7.8-508.1z" fill="#FFECBE" p-id="5017"></path><path d="M580.8 184.6c7.2 0 14.3 0.1 21.1 0.3 26.3 0.8 50.3 9.4 63.2 34.4 8.4 16.2 15.2 34.6 25.9 58.8 6 13.6 18.7 22.2 32.4 22.2 0.9 0 1.8 0 2.8-0.1 9.5-0.8 22.6-1.1 36.5-1.1 24.1 0 50.4 0.9 64 1.9 26.5 1.9 48.9 21.9 55.8 49.8 27.6 112.2 33.1 382.9-36.7 443.1-43.9 37.8-221.9 45.5-383.2 45.5-68.4 0-133.8-1.4-184.7-2.5-14.6-0.3-29.3-1.9-43.4-5.7-88.1-23.7-103.4-121.1-107.6-199.2-2.8-52.9-4.6-104.7-4.3-157.6 0.3-44.5-0.2-110.1 39.6-140 34.5-25.9 86.2-31.7 107.8-32.7 11.6-0.5 21.9-8.1 26.7-19.7l22-49.6c9.6-23.3 30.7-38.4 54.1-38.8 61.6-1.1 142.4-9 208-9m0-24c-37.2 0-78.9 2.5-119.3 4.8-32.1 1.9-62.4 3.7-89.1 4.2-32.7 0.6-62.4 21.6-75.7 53.4l-21.9 49.3c-0.1 0.2-0.2 0.4-0.2 0.6-1.2 2.8-3.3 4.7-5.5 4.8-17.8 0.8-79 5.8-121.2 37.4-48.6 36.5-49 108.6-49.2 156.3v2.8c-0.3 48.4 1.1 98.9 4.3 159 2.8 52 10.2 190.1 125.1 221.1 14.9 4 31 6.2 49.2 6.6h1.5c51.6 1.1 115.8 2.4 183.7 2.4 234.6 0 357.7-15.8 398.9-51.4 25.4-21.9 57-77.7 63.2-219.2 3.8-87-3.8-186.6-18.8-247.9-9.4-38-40.5-65.4-77.4-68.1-13.7-1-40.6-2-65.7-2-16.1 0-29.1 0.4-38.5 1.2h-0.8c-4.2 0-8.2-3.1-10.3-7.8-3.9-8.8-7.2-16.7-10.4-24.3-5.6-13.3-10.4-24.8-16.1-35.8-10.7-20.8-34-45.8-83.8-47.4-7 0.1-14.4 0-22 0z" fill="#FFBA01" p-id="5018"></path><path d="M520.5 403.1h1.7c51.1 0.5 110.1 15.8 142.3 74.9 59.5 109-27 236.2-141.9 236.2-9.9 0-20.1-1-30.4-3-92.9-18.1-156.1-95.4-133.6-185.5 18.3-73.4 86.3-122.6 161.9-122.6m0-24.1c-88.4 0-164.5 58-185.2 141-11.3 45.2-4 91.2 20.3 129.4 27.7 43.4 75.8 74.6 132.1 85.6 11.6 2.3 23.4 3.4 35 3.4 64.3 0 125.3-35.5 159.2-92.6C715 590 716.5 523 685.7 466.6c-30.8-56.5-87.2-86.7-163.2-87.5l-2-0.1zM714.9 362.8c10.2-12.3 28.5-12.2 39.3-0.4 7 7.7 10.8 18.4 0.1 31.5-18.7 22.9-59.7-6.7-39.4-31.1zM905.4 468.9c-2.1 0-4.1-0.8-5.7-2.4l-20.1-20.1c-3.1-3.1-3.1-8.2 0-11.4 3.1-3.1 8.2-3.1 11.4 0l20.1 20.1c3.1 3.1 3.1 8.2 0 11.4-1.5 1.6-3.6 2.4-5.7 2.4zM905.4 416.7c-2.1 0-4.1-0.8-5.7-2.4l-20.1-20.1c-3.1-3.1-3.1-8.2 0-11.4 3.1-3.1 8.2-3.1 11.4 0l20.1 20.1c3.1 3.1 3.1 8.2 0 11.4-1.5 1.6-3.6 2.4-5.7 2.4zM905.4 521.1c-2.1 0-4.1-0.8-5.7-2.4l-20.1-20.1c-3.1-3.1-3.1-8.2 0-11.4 3.1-3.1 8.2-3.1 11.4 0l20.1 20.1c3.1 3.1 3.1 8.2 0 11.4-1.5 1.6-3.6 2.4-5.7 2.4zM905.4 573.3c-2.1 0-4.1-0.8-5.7-2.4l-24.1-24.1c-3.1-3.1-3.1-8.2 0-11.4 3.1-3.1 8.2-3.1 11.4 0l24.1 24.1c3.1 3.1 3.1 8.2 0 11.4-1.5 1.6-3.6 2.4-5.7 2.4zM905.4 625.5c-2.1 0-4.1-0.8-5.7-2.4l-24-24.1c-3.1-3.1-3.1-8.2 0-11.4 3.1-3.1 8.2-3.1 11.4 0l24.1 24.1c3.1 3.1 3.1 8.2 0 11.4-1.6 1.6-3.7 2.4-5.8 2.4zM905.4 685.7c-2.1 0-4.1-0.8-5.7-2.4l-32.1-32.1c-3.1-3.1-3.1-8.2 0-11.4 3.1-3.1 8.2-3.1 11.4 0l32.1 32.1c3.1 3.1 3.1 8.2 0 11.4-1.5 1.6-3.6 2.4-5.7 2.4zM885.4 733.9c-2.1 0-4.1-0.8-5.7-2.4l-36.1-36.1c-3.1-3.1-3.1-8.2 0-11.4 3.1-3.1 8.2-3.1 11.4 0l36.1 36.1c3.1 3.1 3.1 8.2 0 11.4-1.6 1.6-3.7 2.4-5.7 2.4zM865.3 786c-2.1 0-4.1-0.8-5.7-2.4l-52.2-52.2c-3.1-3.1-3.1-8.2 0-11.4 3.1-3.1 8.2-3.1 11.4 0l52.2 52.2c3.1 3.1 3.1 8.2 0 11.4-1.6 1.7-3.6 2.4-5.7 2.4zM821.1 818.2c-2.1 0-4.1-0.8-5.7-2.4l-44.2-44.2c-3.1-3.1-3.1-8.2 0-11.4 3.1-3.1 8.2-3.1 11.4 0l44.2 44.2c3.1 3.1 3.1 8.2 0 11.4-1.5 1.6-3.6 2.4-5.7 2.4zM769 838.2c-2.1 0-4.1-0.8-5.7-2.4l-36.1-36.1c-3.1-3.1-3.1-8.2 0-11.4 3.1-3.1 8.2-3.1 11.4 0l36.1 36.1c3.1 3.1 3.1 8.2 0 11.4-1.6 1.7-3.7 2.4-5.7 2.4zM708.7 846.3c-2.1 0-4.1-0.8-5.7-2.4l-28-28.1c-3.1-3.1-3.1-8.2 0-11.4 3.1-3.1 8.2-3.1 11.4 0l28.1 28.1c3.1 3.1 3.1 8.2 0 11.4-1.7 1.6-3.7 2.4-5.8 2.4zM660.6 854.3c-2.1 0-4.1-0.8-5.7-2.4l-28.1-28.1c-3.1-3.1-3.1-8.2 0-11.4 3.1-3.1 8.2-3.1 11.4 0l28.1 28.1c3.1 3.1 3.1 8.2 0 11.4-1.6 1.6-3.7 2.4-5.7 2.4zM604.4 858.3c-2.1 0-4.1-0.8-5.7-2.4l-24.1-24.1c-3.1-3.1-3.1-8.2 0-11.4 3.1-3.1 8.2-3.1 11.4 0l24.1 24.1c3.1 3.1 3.1 8.2 0 11.4-1.6 1.6-3.7 2.4-5.7 2.4zM552.2 862.3c-2.1 0-4.1-0.8-5.7-2.4l-24.1-24.1c-3.1-3.1-3.1-8.2 0-11.4 3.1-3.1 8.2-3.1 11.4 0l24.1 24.1c3.1 3.1 3.1 8.2 0 11.4-1.6 1.6-3.7 2.4-5.7 2.4z" fill="#FFBA01" p-id="5019"></path></svg>