<?xml version="1.0" standalone="no"?><!DOCTYPE svg PUBLIC "-//W3C//DTD SVG 1.1//EN" "http://www.w3.org/Graphics/SVG/1.1/DTD/svg11.dtd"><svg t="1698979698641" class="icon" viewBox="0 0 1024 1024" version="1.1" xmlns="http://www.w3.org/2000/svg" p-id="3854" xmlns:xlink="http://www.w3.org/1999/xlink" width="32" height="32"><path d="M821 231.1s90.2 150.3 20 344.3c-13 35.6-34.9 67.6-64.4 91.4-111.9 90.4-281.3 80.2-287.9 83.5-7.6 3.8-14.2 30.6-67.3 87.5l82.5-56.3s287.8 10.8 358.8-75.9c68.3-83.5 79.7-264.6 24.7-365.8-24.7-70.8-43.7-108.7-66.4-108.7z" fill="#BBEFBC" p-id="3855"></path><path d="M387.5 861.3c-4.4 0-8.5-2.6-10.3-6.6-1.9-4-1.2-8.8 1.7-12.2 17.5-20.5 19.7-31.5 18.6-55.8-76.5-7.8-130.2-15.7-168.3-24.9-45-10.9-82.5-40.3-102.9-80.8C73 575 90.6 414.9 114.8 299.3c12.5-59.8 61.4-106.3 121.8-115.7 267.6-41.6 484.6-15.1 580.9 29.7 44.1 20.5 80.8 79.4 100.7 161.5C943.7 480.1 939 625.4 871 712.7c-63.3 81.3-227 86.7-364.3 81.6-1.5 1.5-3.2 3.5-5 5.4-18.2 20-56.1 61.6-114.2 61.6zM137.2 303.9c-19.2 91.7-43.4 261.4 9.6 366.8 17.3 34.5 49.4 59.6 87.9 68.9 38.7 9.3 94.2 17.4 174.9 25.4 5.6 0.6 9.9 5.1 10.2 10.6 1.5 24.4 1.8 41-8.2 59.9 34.9-8.9 59.2-35.5 73.4-51.1 4.3-4.7 7.4-8.1 10.2-10.4 2.2-1.8 4.9-2.8 7.7-2.6 132.8 5.1 292.6 1.4 350.3-72.8 63.3-81.4 67.2-218.6 43-318.6-18-74.3-50.9-128.9-88.2-146.2-93.3-43.3-305-68.6-567.9-27.8-51 7.9-92.4 47.2-102.9 97.9z" fill="#01C700" p-id="3856"></path><path d="M301.8 547.5c-4.4 0-8.9-0.5-13.4-1.6-29.6-7.1-49.3-22.3-58.5-45.2-7.1-17.7-5.7-36.8 3.8-53.8 10.8-19.1 31-32.8 54.1-36.5 38.9-6.3 57.1 12.9 64.5 24.9 15.2 24.6 12.6 62.4-5.9 87.9-11.3 15.8-27.2 24.3-44.6 24.3z m0.8-115.6c-3.5 0-7.1 0.3-11 1-16.3 2.7-30.5 12.1-38 25.2-6.1 10.8-7 22.9-2.5 34.1 6.3 15.6 20.6 26.2 42.6 31.5 17.1 4.1 28.1-5.3 34.3-13.8 13-17.9 15.2-46 4.9-62.6-6.2-10.3-16.4-15.4-30.3-15.4z m-12.9-10.3h0.1-0.1zM520.1 547.5c-4.4 0-8.9-0.5-13.4-1.6-29.6-7.1-49.3-22.3-58.5-45.2-7.1-17.7-5.7-36.8 3.8-53.8 10.8-19.1 31-32.8 54.1-36.5 38.8-6.3 57.1 12.9 64.5 24.9 15.2 24.6 12.6 62.4-5.9 87.9-11.3 15.8-27.2 24.3-44.6 24.3z m0.8-115.6c-3.5 0-7.1 0.3-11 1-16.3 2.7-30.5 12.1-38 25.2-6.1 10.8-7 22.9-2.5 34.1 6.3 15.6 20.6 26.2 42.6 31.5 17.1 4.1 28.1-5.3 34.3-13.8 13-17.9 15.2-46 4.9-62.6-6.2-10.3-16.4-15.4-30.3-15.4zM508 421.6h0.1-0.1zM738.4 547.5c-4.4 0-8.9-0.5-13.4-1.6-29.6-7.1-49.3-22.3-58.5-45.2-7.1-17.7-5.7-36.8 3.8-53.8 10.8-19.1 31-32.8 54.1-36.5 38.8-6.3 57.1 12.9 64.5 24.9 15.2 24.6 12.6 62.4-5.9 87.9-11.4 15.8-27.2 24.3-44.6 24.3z m0.8-115.6c-3.5 0-7.1 0.3-11 1-16.3 2.7-30.5 12.1-38 25.2-6.1 10.8-7 22.9-2.5 34.1 6.3 15.6 20.6 26.2 42.6 31.5 17.1 4.1 28.1-5.3 34.3-13.8 13-17.9 15.2-46 4.9-62.6-6.2-10.3-16.4-15.4-30.3-15.4z m-12.9-10.3z" fill="#01C700" p-id="3857"></path><path d="M900.9 383.7c-2 0-4-0.8-5.5-2.3l-19.3-20.1c-2.9-3-2.8-7.8 0.2-10.7 3-2.9 7.8-2.8 10.7 0.2l19.3 20.1c2.9 3 2.8 7.8-0.2 10.7-1.4 1.4-3.3 2.1-5.2 2.1zM912.1 436.1c-1.9 0-3.9-0.7-5.4-2.2l-22.8-22.8c-3-3-3-7.8 0-10.7 3-3 7.8-3 10.7 0l22.8 22.8c3 3 3 7.8 0 10.7-1.4 1.4-3.4 2.2-5.3 2.2zM915.9 485.4c-1.9 0-3.9-0.7-5.4-2.2l-26.6-26.6c-3-3-3-7.8 0-10.7 3-3 7.8-3 10.7 0l26.6 26.6c3 3 3 7.8 0 10.7-1.4 1.5-3.4 2.2-5.3 2.2zM912.1 538.6c-1.9 0-3.9-0.7-5.4-2.2l-26.6-26.6c-3-3-3-7.8 0-10.7 3-3 7.8-3 10.7 0l26.6 26.6c3 3 3 7.8 0 10.7-1.4 1.4-3.4 2.2-5.3 2.2zM908.3 587.9c-1.9 0-3.9-0.7-5.4-2.2l-30.4-30.4c-3-3-3-7.8 0-10.7 3-3 7.8-3 10.7 0l30.4 30.4c3 3 3 7.8 0 10.7-1.4 1.5-3.4 2.2-5.3 2.2zM893.1 633.5c-1.9 0-3.9-0.7-5.4-2.2l-34.2-34.2c-3-3-3-7.8 0-10.7 3-3 7.8-3 10.7 0l34.2 34.2c3 3 3 7.8 0 10.7-1.4 1.4-3.4 2.2-5.3 2.2zM874.1 679c-1.9 0-3.9-0.7-5.4-2.2l-38-38c-3-3-3-7.8 0-10.7 3-3 7.8-3 10.7 0l38 38c3 3 3 7.8 0 10.7-1.4 1.5-3.3 2.2-5.3 2.2zM847.5 717c-1.9 0-3.9-0.7-5.4-2.2l-45.6-45.6c-3-3-3-7.8 0-10.7 3-3 7.8-3 10.7 0l45.6 45.6c3 3 3 7.8 0 10.7-1.4 1.5-3.3 2.2-5.3 2.2zM813.4 747.4c-1.9 0-3.9-0.7-5.4-2.2l-45.6-45.6c-3-3-3-7.8 0-10.7 3-3 7.8-3 10.7 0l45.6 45.6c3 3 3 7.8 0 10.7-1.4 1.4-3.4 2.2-5.3 2.2zM764 766.4c-1.9 0-3.9-0.7-5.4-2.2l-41.8-41.8c-3-3-3-7.8 0-10.7 3-3 7.8-3 10.7 0l41.8 41.8c3 3 3 7.8 0 10.7-1.4 1.4-3.3 2.2-5.3 2.2zM707.1 781.6c-1.9 0-3.9-0.7-5.4-2.2L671.3 749c-3-3-3-7.8 0-10.7 3-3 7.8-3 10.7 0l30.4 30.4c3 3 3 7.8 0 10.7-1.4 1.4-3.4 2.2-5.3 2.2zM653.9 792.9c-1.9 0-3.9-0.7-5.4-2.2l-30.4-30.4c-3-3-3-7.8 0-10.7 3-3 7.8-3 10.7 0l30.4 30.4c3 3 3 7.8 0 10.7-1.4 1.5-3.3 2.2-5.3 2.2zM589.4 792.9c-1.9 0-3.9-0.7-5.4-2.2l-22.8-22.8c-3-3-3-7.8 0-10.7 3-3 7.8-3 10.7 0l22.8 22.8c3 3 3 7.8 0 10.7-1.4 1.5-3.4 2.2-5.3 2.2z" fill="#01C700" p-id="3858"></path></svg>