<?xml version="1.0" standalone="no"?><!DOCTYPE svg PUBLIC "-//W3C//DTD SVG 1.1//EN" "http://www.w3.org/Graphics/SVG/1.1/DTD/svg11.dtd"><svg t="1698980771409" class="icon" viewBox="0 0 1024 1024" version="1.1" xmlns="http://www.w3.org/2000/svg" p-id="6470" xmlns:xlink="http://www.w3.org/1999/xlink" width="32" height="32"><path d="M880.5 552.2s59 186.7-104.5 229.9c0 0 115 12.8 141.4-43.1 26.3-56-36.9-186.8-36.9-186.8zM777 306.3s29.9 133.1-92.7 183.5c0 0 50.2 45.7 111.7-51.7 42.4-66.9-19-131.8-19-131.8zM712.9 554.5s34.3 184.1-39.1 251.9c-76.9 70.9-211.4 89.8-278.3 98.6 0 0 230.2 66 338.6-52.3s-21.2-298.2-21.2-298.2zM620.6 150.1s59 266-191.7 304.1c0 0 167.6 38.6 230.8-82.9 53.8-103.5-39.1-221.2-39.1-221.2z" fill="#BBDAFF" p-id="6471"></path><path d="M887.8 525.6c-16.9-28.5-37.7-55.9-61.8-81.3-0.6-0.6-2.4-2.8-3.7-4.4-6.1-7.3-11.6-13.7-17.1-18.7-3.6 7.8-6.2 16.6-8.6 25.7 5.1 5.7 9.7 11.5 12 14 22.2 23.4 42.1 49.2 58.6 77 29.9 50.4 61.2 127.4 42.9 186.4-15.1 48.7-66.8 58-119.3 58-4.9 0-9.8-0.1-14.7-0.2-2.7 8.3-7.5 15.6-10.6 23.7 8.3 0.3 16.9 0.6 25.4 0.6 34.8 0 61-3.9 82.5-12.4 30.6-12 50.7-33.1 59.8-62.6 23.6-76.7-23.9-169.5-45.4-205.8zM272.2 780.9c-13.3 0.8-27.1 1.4-40.9 1.4-51.6 0-102.5-9.3-117.4-58-18-59 12.8-136 42.2-186.4 15.9-27.3 35.1-52.6 56.5-75.7-3.4-8.5-6-17.5-10.1-25.3-0.9 1.1-1.8 2.1-2.7 3.2-1.3 1.6-3.1 3.7-3.7 4.4-23.7 25.4-44.2 52.8-60.8 81.3-21.1 36.3-67.8 129-44.5 205.6 22.9 75.1 111.4 75.1 140.4 75.1 13.3 0 26.6-0.6 39.1-1.3-2.4-6.5 0-15.2 1.9-24.3z" fill="#0F82FF" p-id="6472"></path><path d="M324.5 499c-40 0-81.8-17.8-105-47.1-24.2-30.7-24.8-85.6-5.4-122.4 17.3-33 51.6-51.2 86.8-54.1 1.3-7.5 1-15.8 2.1-24.3-47.7 2.5-89.5 27.8-110.2 67.2-24.5 46.7-21.1 112 7.8 148.6 25.9 32.7 71.6 54.3 117.8 56 2.6-8.1 4.4-16.6 8.5-24-0.7 0-1.5 0.1-2.4 0.1zM806 318.3c-21.9-41.6-67.1-67.5-118.1-67.5-1.9 0-3.9 0.1-5.8 0.2 0.7 8.3 0.2 16.6-2.5 24.2 2.8-0.2 5.5-0.3 8.3-0.3 38.5 0 77.8 18.5 96.8 54.6 19.4 36.9 18.8 91.8-5.4 122.4-19.2 24.3-51.2 40.6-84.3 45.5 5.7 6.9 12.1 13.7 15.8 21.5 35.1-7.9 67.3-26.6 87.4-52.1 28.9-36.5 32.3-101.8 7.8-148.5z" fill="#0F82FF" p-id="6473"></path><path d="M699.7 495.7c-17.5-29.4-36.9-58.8-57.7-87.5-0.6-0.9-1.4-1.7-2-2.6-3.3 8.7-9.3 13.8-16.7 17.8 19.8 27.3 38.4 55.5 55.7 84.5 41.8 70.1 83.6 151.8 85.3 235.2 1.9 91.4-71.1 147-154.2 163.9-26 5.3-56.3 8.3-87.7 8.3-69.8 0-145.2-15-192.4-53.5-69.4-56.5-53.6-186.5-31.7-261.4 17.2-59 46.7-114.4 82.2-165.5-5.9-5.3-10.6-12.5-19.3-14.5-40.6 58.3-69.5 116.5-86.1 173.2C261.3 642 254.2 695 256 739.1c2.6 64.1 22.4 111.7 58.9 141.5 62.9 51.3 157.1 58.9 207.7 58.9 32.2 0 64.1-3 92.5-8.8 48.5-9.9 90.3-30.7 120.9-60.3 35.4-34.2 53.6-78.4 52.6-127.7-2-89.6-46-175.2-88.9-247z" fill="#0F82FF" p-id="6474"></path><path d="M497.3 116.3c52.5 0 111.3 20.4 141.9 67.8 33.3 51.7 32.6 135.4 2.8 188.4-31.6 56.2-90.3 82.6-149.2 82.6-84.1 0-168.8-53.8-175.7-151.7-6.5-91.9 50.4-155.8 129.9-180 13-4 27.2-6.3 41.9-6.9 2.8-0.2 5.6-0.2 8.4-0.2m0-24.1c-3.1 0-6.3 0.1-9.4 0.2-16.8 0.7-32.8 3.4-47.6 7.9-97.3 29.6-153.4 108.1-146.6 204.8 3.8 52.8 27.3 97.7 68 129.9 36 28.5 82.6 44.1 131.1 44.1 72.8 0 136.2-35.4 169.5-94.6 35-62.3 33.5-156.2-3.6-213.7-16.7-26-42-46.9-73-60.5-26.9-11.8-57.4-18.1-88.4-18.1zM745.6 854c-2.1 0-4.1-0.8-5.7-2.3l-38-38c-3.1-3.1-3.1-8.2 0-11.4 3.1-3.1 8.2-3.1 11.4 0l38 38c3.1 3.1 3.1 8.2 0 11.4-1.6 1.5-3.6 2.3-5.7 2.3zM911.1 758c-2.1 0-4.1-0.8-5.7-2.3l-27.9-27.9c-3.1-3.1-3.1-8.2 0-11.4 3.1-3.1 8.2-3.1 11.4 0l27.9 27.9c3.1 3.1 3.1 8.2 0 11.4-1.6 1.5-3.6 2.3-5.7 2.3zM888 785.1c-2.1 0-4.1-0.8-5.7-2.3L855.6 756c-3.1-3.1-3.1-8.2 0-11.4 3.1-3.1 8.2-3.1 11.4 0l26.8 26.8c3.1 3.1 3.1 8.2 0 11.4-1.7 1.6-3.7 2.3-5.8 2.3zM850.5 798.1c-2.1 0-4.1-0.8-5.7-2.3l-16.6-16.6c-3.1-3.1-3.1-8.2 0-11.4 3.1-3.1 8.2-3.1 11.4 0l16.6 16.6c3.1 3.1 3.1 8.2 0 11.4-1.6 1.5-3.7 2.3-5.7 2.3zM928.3 726.1c-2.1 0-4.1-0.8-5.7-2.3l-26.3-26.3c-3.1-3.1-3.1-8.2 0-11.4 3.1-3.1 8.2-3.1 11.4 0l26.3 26.3c3.1 3.1 3.1 8.2 0 11.4-1.6 1.5-3.6 2.3-5.7 2.3zM927.6 680.8c-2.1 0-4.1-0.8-5.7-2.3l-20.6-20.6c-3.1-3.1-3.1-8.2 0-11.4 3.1-3.1 8.2-3.1 11.4 0l20.6 20.6c3.1 3.1 3.1 8.2 0 11.4-1.5 1.5-3.6 2.3-5.7 2.3zM812.2 402.4c-2.1 0-4.1-0.8-5.7-2.3l-18-18.1c-3.1-3.1-3.1-8.2 0-11.4 3.1-3.1 8.2-3.1 11.4 0l18.1 18.1c3.1 3.1 3.1 8.2 0 11.4-1.7 1.6-3.7 2.3-5.8 2.3zM806.7 439.3c-2.1 0-4.1-0.8-5.7-2.3l-21.3-21.3c-3.1-3.1-3.1-8.2 0-11.4 3.1-3.1 8.2-3.1 11.4 0l21.3 21.3c3.1 3.1 3.1 8.2 0 11.4-1.6 1.5-3.7 2.3-5.7 2.3zM789.5 470.5c-2.1 0-4.1-0.8-5.7-2.3l-25.1-25.1c-3.1-3.1-3.1-8.2 0-11.4 3.1-3.1 8.2-3.1 11.4 0l25.1 25.1c3.1 3.1 3.1 8.2 0 11.4-1.6 1.5-3.6 2.3-5.7 2.3zM764.4 493.4c-2.1 0-4.1-0.8-5.7-2.3L738.6 471c-3.1-3.1-3.1-8.2 0-11.4 3.1-3.1 8.2-3.1 11.4 0l20.1 20.1c3.1 3.1 3.1 8.2 0 11.4-1.6 1.5-3.6 2.3-5.7 2.3zM732.2 508.5c-2.1 0-4.1-0.8-5.7-2.3l-15.4-15.4c-3.1-3.1-3.1-8.2 0-11.4 3.1-3.1 8.2-3.1 11.4 0l15.4 15.4c3.1 3.1 3.1 8.2 0 11.4-1.6 1.5-3.7 2.3-5.7 2.3zM718.8 880.8c-2.1 0-4.1-0.8-5.7-2.3L672.6 838c-3.1-3.1-3.1-8.2 0-11.4 3.1-3.1 8.2-3.1 11.4 0l40.5 40.5c3.1 3.1 3.1 8.2 0 11.4-1.6 1.6-3.7 2.3-5.7 2.3z" fill="#0F82FF" p-id="6475"></path><path d="M622.2 430.2c-2 0-3.9-0.7-5.5-2.2L586 399.2c-3.2-3-3.4-8.1-0.4-11.3 3-3.2 8.1-3.4 11.3-0.3l30.7 28.8c3.2 3 3.4 8.1 0.4 11.3-1.5 1.6-3.6 2.5-5.8 2.5zM645.1 394.2c-2 0-3.9-0.7-5.5-2.2l-33-31c-3.2-3-3.4-8.1-0.4-11.3 3-3.2 8.1-3.4 11.3-0.3l33 31c3.2 3 3.4 8.1 0.4 11.3-1.5 1.6-3.7 2.5-5.8 2.5zM663.3 363.7c-2 0-3.9-0.7-5.5-2.2l-31.7-29.8c-3.2-3-3.4-8.1-0.4-11.3 3-3.2 8.1-3.4 11.3-0.3l31.7 29.8c3.2 3 3.4 8.1 0.4 11.3-1.6 1.7-3.7 2.5-5.8 2.5zM670.3 319.6c-2 0-3.9-0.7-5.5-2.2l-26.4-24.8c-3.2-3-3.4-8.1-0.4-11.3 3-3.2 8.1-3.4 11.3-0.3l26.4 24.8c3.2 3 3.4 8.1 0.4 11.3-1.5 1.7-3.7 2.5-5.8 2.5zM681.2 279.9c-1.8 0-3.6-0.6-5.1-1.8l-27.6-22.7c-3.4-2.8-3.9-7.9-1.1-11.3 2.8-3.4 7.9-3.9 11.3-1.1l27.6 22.7c3.4 2.8 3.9 7.9 1.1 11.3-1.5 1.9-3.8 2.9-6.2 2.9zM669.3 229c-1.6 0-3.3-0.5-4.7-1.6l-19.4-14.2c-3.6-2.6-4.3-7.6-1.7-11.2 2.6-3.6 7.6-4.3 11.2-1.7l19.4 14.2c3.6 2.6 4.3 7.6 1.7 11.2-1.6 2.2-4 3.3-6.5 3.3zM588.7 450.3c-2 0-3.9-0.7-5.5-2.2L561.8 428c-3.2-3-3.4-8.1-0.4-11.3 3-3.2 8.1-3.4 11.3-0.3l21.4 20.1c3.2 3 3.4 8.1 0.4 11.3-1.5 1.7-3.6 2.5-5.8 2.5zM553.5 466c-2 0-3.9-0.7-5.5-2.2l-15.5-14.5c-3.2-3-3.4-8.1-0.4-11.3 3-3.2 8.1-3.4 11.3-0.4l15.5 14.5c3.2 3 3.4 8.1 0.4 11.3-1.6 1.7-3.7 2.6-5.8 2.6zM685.6 901.2c-2.1 0-4.1-0.8-5.7-2.3l-37.6-37.6c-3.1-3.1-3.1-8.2 0-11.4 3.1-3.1 8.2-3.1 11.4 0l37.6 37.6c3.1 3.1 3.1 8.2 0 11.4-1.6 1.5-3.6 2.3-5.7 2.3zM650.5 916.3c-2.1 0-4.1-0.8-5.7-2.3L609 878.2c-3.1-3.1-3.1-8.2 0-11.4 3.1-3.1 8.2-3.1 11.4 0l35.8 35.8c3.1 3.1 3.1 8.2 0 11.4-1.6 1.5-3.6 2.3-5.7 2.3zM607 927.7c-2.1 0-4.1-0.8-5.7-2.3l-32.6-32.6c-3.1-3.1-3.1-8.2 0-11.4 3.1-3.1 8.2-3.1 11.4 0l32.6 32.6c3.1 3.1 3.1 8.2 0 11.4-1.6 1.5-3.6 2.3-5.7 2.3zM552.7 933.8c-2.1 0-4.1-0.8-5.7-2.3l-28.2-28.2c-3.1-3.1-3.1-8.2 0-11.4 3.1-3.1 8.2-3.1 11.4 0l28.2 28.2c3.1 3.1 3.1 8.2 0 11.4-1.6 1.5-3.6 2.3-5.7 2.3zM494.7 934.3c-2.1 0-4.1-0.8-5.7-2.3l-22.8-22.8c-3.1-3.1-3.1-8.2 0-11.4 3.1-3.1 8.2-3.1 11.4 0l22.8 22.8c3.1 3.1 3.1 8.2 0 11.4-1.6 1.5-3.6 2.3-5.7 2.3zM766.4 819.7c-2.1 0-4.1-0.8-5.7-2.3L726.3 783c-3.1-3.1-3.1-8.2 0-11.4 3.1-3.1 8.2-3.1 11.4 0l34.4 34.4c3.1 3.1 3.1 8.2 0 11.4-1.6 1.5-3.6 2.3-5.7 2.3zM778.4 777.9c-2.1 0-4.1-0.8-5.7-2.3L737.2 740c-3.1-3.1-3.1-8.2 0-11.4 3.1-3.1 8.2-3.1 11.4 0l35.6 35.6c3.1 3.1 3.1 8.2 0 11.4a8.41 8.41 0 0 1-5.8 2.3zM778.4 731.8c-2.1 0-4.1-0.8-5.7-2.3l-29.3-29.3c-3.1-3.1-3.1-8.2 0-11.4 3.1-3.1 8.2-3.1 11.4 0l29.3 29.3c3.1 3.1 3.1 8.2 0 11.4-1.6 1.5-3.6 2.3-5.7 2.3zM767.9 680.4c-2.1 0-4.1-0.8-5.7-2.3l-25.5-25.5c-3.1-3.1-3.1-8.2 0-11.4 3.1-3.1 8.2-3.1 11.4 0l25.5 25.5c3.1 3.1 3.1 8.2 0 11.4-1.6 1.5-3.6 2.3-5.7 2.3z" fill="#0F82FF" p-id="6476"></path></svg>