<?xml version="1.0" standalone="no"?><!DOCTYPE svg PUBLIC "-//W3C//DTD SVG 1.1//EN" "http://www.w3.org/Graphics/SVG/1.1/DTD/svg11.dtd"><svg t="1698980706293" class="icon" viewBox="0 0 1024 1024" version="1.1" xmlns="http://www.w3.org/2000/svg" p-id="4289" xmlns:xlink="http://www.w3.org/1999/xlink" width="32" height="32"><path d="M798.9 347.2S693.8 460 619.9 482.6c-74.6 22.7-131.5 21.1-205.7 4.5 0 0 109 107.3 275.9 27 108.8-52.9 108.8-166.9 108.8-166.9zM442.2 571.6S306.4 755.7 261.5 768.4l50.7 39.4 180.4-215.4-50.4-20.8z" fill="#E5D8FF" p-id="4290"></path><path d="M666.4 530.2c-2.1 0-4.1-0.8-5.7-2.4l-30.4-30.4c-3.1-3.1-3.1-8.2 0-11.4s8.2-3.1 11.4 0l30.4 30.4c3.1 3.1 3.1 8.2 0 11.4-1.6 1.6-3.7 2.4-5.7 2.4zM705.3 510.3c-2.1 0-4.1-0.8-5.7-2.4l-30.4-30.4c-3.1-3.1-3.1-8.2 0-11.4 3.1-3.1 8.2-3.1 11.4 0l30.4 30.4c3.1 3.1 3.1 8.2 0 11.4-1.6 1.6-3.6 2.4-5.7 2.4zM739.2 484.5c-2.1 0-4.1-0.8-5.7-2.4L708.4 457c-3.1-3.1-3.1-8.2 0-11.4s8.2-3.1 11.4 0l25.1 25.1c3.1 3.1 3.1 8.2 0 11.4-1.6 1.6-3.7 2.4-5.7 2.4zM618.5 547.7c-2.1 0-4.1-0.8-5.7-2.4l-30.4-30.4c-3.1-3.1-3.1-8.2 0-11.4 3.1-3.1 8.2-3.1 11.4 0l30.4 30.4c3.1 3.1 3.1 8.2 0 11.4-1.6 1.6-3.7 2.4-5.7 2.4zM570.3 556.1c-2.1 0-4.1-0.8-5.7-2.4l-30.4-30.4c-3.1-3.1-3.1-8.2 0-11.4 3.1-3.1 8.2-3.1 11.4 0l30.4 30.4c3.1 3.1 3.1 8.2 0 11.4-1.6 1.6-3.6 2.4-5.7 2.4zM531.5 556.1c-2.1 0-4.1-0.8-5.7-2.4l-30.4-30.4c-3.1-3.1-3.1-8.2 0-11.4 3.1-3.1 8.2-3.1 11.4 0l30.4 30.4c3.1 3.1 3.1 8.2 0 11.4-1.6 1.6-3.7 2.4-5.7 2.4zM414.2 698.4c-2.1 0-4.1-0.8-5.7-2.4L381 668.6c-3.1-3.1-3.1-8.2 0-11.4 3.1-3.1 8.2-3.1 11.4 0l27.5 27.5c3.1 3.1 3.1 8.2 0 11.4-1.6 1.5-3.7 2.3-5.7 2.3zM441.1 665.4c-2.1 0-4.1-0.8-5.7-2.4l-23.9-23.9c-3.1-3.1-3.1-8.2 0-11.4 3.1-3.1 8.2-3.1 11.4 0l23.9 23.9c3.1 3.1 3.1 8.2 0 11.4-1.6 1.6-3.7 2.4-5.7 2.4zM463.9 632.7c-2.1 0-4.1-0.8-5.7-2.4l-21.9-21.9c-3.1-3.1-3.1-8.2 0-11.4s8.2-3.1 11.4 0l21.9 21.9c3.1 3.1 3.1 8.2 0 11.4-1.6 1.7-3.6 2.4-5.7 2.4zM388.6 729.5c-2.1 0-4.1-0.8-5.7-2.4l-27.3-27.3c-3.1-3.1-3.1-8.2 0-11.4 3.1-3.1 8.2-3.1 11.4 0l27.3 27.3c3.1 3.1 3.1 8.2 0 11.4-1.5 1.6-3.6 2.4-5.7 2.4zM362.4 762c-2.1 0-4.1-0.8-5.7-2.4l-30.4-30.4c-3.1-3.1-3.1-8.2 0-11.4 3.1-3.1 8.2-3.1 11.4 0l30.4 30.4c3.1 3.1 3.1 8.2 0 11.4-1.6 1.7-3.6 2.4-5.7 2.4zM337.5 791.6c-2.1 0-4.1-0.8-5.7-2.4l-30.4-30.4c-3.1-3.1-3.1-8.2 0-11.4 3.1-3.1 8.2-3.1 11.4 0l30.4 30.4c3.1 3.1 3.1 8.2 0 11.4-1.6 1.6-3.6 2.4-5.7 2.4z" fill="#A87DFF" p-id="4291"></path><path d="M310.2 797.1l-85.5-65.2 142.9-281c-4.7-8.6-8.3-18.9-13.1-27.3L198.7 729.9c-2.6 5.2-1.2 11.5 3.4 15L305 823.4c2.2 1.7 4.7 2.5 7.3 2.5 3.6 0 7.1-1.6 9.4-4.6l216.1-272.2c-8.8-1.3-17.2-3.9-24.6-7.8l-203 255.8z" fill="#A87DFF" p-id="4292"></path><path d="M263.4 844.9c-2.4 0-4.8-0.7-6.8-2.1l-60.5-41.6c-3.7-2.5-5.7-6.9-5.1-11.3l6.5-55.8c0.5-4.3 3.3-8 7.3-9.7s8.6-1.1 12 1.5l102.9 78.4c3.5 2.6 5.2 7 4.6 11.3s-3.5 8-7.6 9.5l-48.9 19c-1.5 0.5-2.9 0.8-4.4 0.8z m-47.7-59.5l49.3 33.9 23-8.9-69-52.6-3.3 27.6z" fill="#A87DFF" p-id="4293"></path><path d="M471.8 984.2c-2.8 0-5.5-0.9-7.8-2.9-5.1-4.3-5.7-11.9-1.4-17 11.5-13.7 39.9-55.1 32.8-82.2-2.8-10.6-11-18.3-25.1-23.7-28.3-10.7-47 6.5-77.5 37.8-31.3 32.2-70.3 72.2-135.2 60.8-34-6-55.5-20.3-63.9-42.5-16.5-43.7 27.9-99.7 29.8-102.1 4.2-5.2 11.7-6 16.9-1.8s6 11.7 1.8 16.9c-10.5 13.2-35.7 52.9-26 78.5 5.2 13.7 20.5 22.8 45.5 27.2 52.3 9.2 83.6-22.8 113.8-53.8 28.9-29.6 58.7-60.3 103.2-43.6 21.7 8.2 35.1 21.7 39.9 40.2 5 19.4 0 42.9-14.9 70.1-10.6 19.2-22.3 33.2-22.8 33.8-2.3 2.9-5.7 4.3-9.1 4.3zM492.7 596.2c-1.1 0-2.3-0.2-3.4-0.5-80.3-23.9-158.6-97.3-161.9-100.4-4.8-4.6-5-12.2-0.5-17 4.6-4.8 12.2-5 17-0.5 0.8 0.7 77.4 72.6 152.2 94.8 6.4 1.9 10 8.6 8.1 15-1.5 5.2-6.3 8.6-11.5 8.6zM585.5 63.9c108.7 0 206.5 77.3 222.2 190.1 2.8 19.7 2.7 39.9-0.9 59.5-16.7 91.2-73.5 183.9-167.4 213.6-21.1 6.7-42.7 9.8-64.1 9.8-83.3 0-164.5-47.4-208.4-118.5-1.8-2.9-3.6-5.9-5.2-8.9-56.8-102-20-226 72.9-294.2 28.8-21.2 62-36.6 97-44.9 18.1-4.5 36.2-6.5 53.9-6.5m0.1-24.1v24.1-24.1c-20 0-40 2.4-59.5 7.1-37.9 9.1-74.4 26-105.6 48.9-50.2 36.9-86.3 89.3-101.6 147.8-15.9 60.6-8.1 123.7 21.9 177.6 1.8 3.3 3.8 6.6 5.8 9.9 48.7 79 138.5 130 228.9 130 24.4 0 48.4-3.7 71.4-10.9 48.6-15.4 91.8-47.4 124.8-92.5 29.2-39.8 49.6-88.2 59-139.7 3.9-21.5 4.3-44.1 1.1-67.2-8.5-59.8-38.6-114-84.8-152.6-45.1-37.7-102.4-58.4-161.4-58.4z" fill="#A87DFF" p-id="4294"></path><path d="M781.8 411.2c-1.1 0-2.2-0.2-3.4-0.5C608.2 361.4 395 161 386 152.4c-4.8-4.6-5-12.2-0.5-17 4.6-4.8 12.2-5 17-0.5 0.5 0.5 55.1 52 129.5 108.6 97.8 74.5 185.3 124.3 253.1 143.9 6.4 1.9 10.1 8.5 8.2 14.9-1.5 5.4-6.3 8.9-11.5 8.9zM748.8 455.8c-1.1 0-2.2-0.2-3.4-0.5C575.2 406 362 205.6 353 197.1c-4.8-4.6-5-12.2-0.5-17 4.6-4.8 12.2-5 17-0.5 0.5 0.5 55.1 52 129.5 108.6 97.8 74.5 185.3 124.3 253.1 143.9 6.4 1.9 10.1 8.5 8.2 14.9-1.4 5.4-6.3 8.8-11.5 8.8z" fill="#A87DFF" p-id="4295"></path></svg>