<?xml version="1.0" standalone="no"?><!DOCTYPE svg PUBLIC "-//W3C//DTD SVG 1.1//EN" "http://www.w3.org/Graphics/SVG/1.1/DTD/svg11.dtd"><svg t="1698980746274" class="icon" viewBox="0 0 1024 1024" version="1.1" xmlns="http://www.w3.org/2000/svg" p-id="5597" xmlns:xlink="http://www.w3.org/1999/xlink" width="32" height="32"><path d="M689.8 639.6S549 782.7 483.6 825.4c-48.4 31.6-135.3 64.2-206.2 68.7 0 0 96 84.8 234.7-23.4s177.7-231.1 177.7-231.1z" fill="#BBEFBC" p-id="5598"></path><path d="M526.7 867.2c-2.1 0-4.1-0.8-5.7-2.4l-29.4-29.4c-3.1-3.1-3.1-8.2 0-11.4 3.1-3.1 8.2-3.1 11.4 0l29.4 29.4c3.1 3.1 3.1 8.2 0 11.4-1.6 1.6-3.6 2.4-5.7 2.4zM554.8 839.2c-2.1 0-4.1-0.8-5.7-2.4l-25-25c-3.1-3.1-3.1-8.2 0-11.4 3.1-3.1 8.2-3.1 11.4 0l25 25c3.1 3.1 3.1 8.2 0 11.4-1.6 1.6-3.7 2.4-5.7 2.4zM584.5 809.4c-2.1 0-4.1-0.8-5.7-2.4l-25.4-25.4c-3.1-3.1-3.1-8.2 0-11.4 3.1-3.1 8.2-3.1 11.4 0l25.4 25.4c3.1 3.1 3.1 8.2 0 11.4-1.6 1.6-3.6 2.4-5.7 2.4zM607.9 774.6c-2.1 0-4.1-0.8-5.7-2.4l-16.7-16.7c-3.1-3.1-3.1-8.2 0-11.4s8.2-3.1 11.4 0l16.7 16.7c3.1 3.1 3.1 8.2 0 11.4-1.6 1.6-3.6 2.4-5.7 2.4zM631.9 746c-2.1 0-4.1-0.8-5.7-2.4L611.6 729c-3.1-3.1-3.1-8.2 0-11.4 3.1-3.1 8.2-3.1 11.4 0l14.7 14.7c3.1 3.1 3.1 8.2 0 11.4-1.6 1.5-3.7 2.3-5.8 2.3zM495.2 893.4c-2.1 0-4.1-0.8-5.7-2.4l-29.4-29.4c-3.1-3.1-3.1-8.2 0-11.4 3.1-3.1 8.2-3.1 11.4 0l29.4 29.4c3.1 3.1 3.1 8.2 0 11.4-1.6 1.6-3.6 2.4-5.7 2.4zM458.4 916.8c-2.1 0-4.1-0.8-5.7-2.4L423.4 885c-3.1-3.1-3.1-8.2 0-11.4 3.1-3.1 8.2-3.1 11.4 0l29.4 29.4c3.1 3.1 3.1 8.2 0 11.4-1.7 1.6-3.7 2.4-5.8 2.4zM412.5 929.7c-2.1 0-4.1-0.8-5.7-2.4l-22.1-22.1c-3.1-3.1-3.1-8.2 0-11.4 3.1-3.1 8.2-3.1 11.4 0l22.1 22.1c3.1 3.1 3.1 8.2 0 11.4-1.6 1.6-3.7 2.4-5.7 2.4zM375.5 939.6c-2.1 0-4.1-0.8-5.7-2.4l-29.4-29.4c-3.1-3.1-3.1-8.2 0-11.4 3.1-3.1 8.2-3.1 11.4 0l29.4 29.4c3.1 3.1 3.1 8.2 0 11.4-1.6 1.6-3.6 2.4-5.7 2.4z" fill="#01C700" p-id="5599"></path><path d="M637.7 107.2c5.4 0 11 0.6 16.9 1.8 67 14.1 150 57.7 181.2 120.6 19 38.3 10.9 76.8 0.8 116.5-17.2 68-55.4 134.9-88.7 196.2-34 62.7-73.6 124.4-117.7 179.1-97.4 121-167.6 195.4-251.7 195.4-35.9 0-74.3-13.6-118.5-42.8-37.6-24.9-81.6-65.7-83.3-113.3-1.4-40 14.8-62.9 38.3-92.6 16.3-20.5 36.6-42.2 57.5-58.2 11.8-9 29.8-25.4 51.1-25.4 5.5 0 11.2 1.1 17 3.6 20.4 8.9 32.2 29.4 49.8 42.2 15.8 11.5 31.2 16.4 46 16.4 48.4 0 90.1-51.8 118.6-90.6 35-47.7 88.3-118.8 43.1-176.8-19.8-25.4-52-36.2-76-56.6-6.3-5.4-10.8-11-13.9-16.9-8.2-15.7-5.8-33.4 0.7-53.4 11.9-36.5 34.2-73 57.4-103.9 18.5-24 41.8-41.3 71.4-41.3m0-24.1c-34.4 0-64.8 17.2-90.3 51.1-20.1 26.7-46.9 67.5-61.1 110.9-6.6 20.1-12.4 46.5 0.8 71.9 4.6 8.8 11.2 16.9 19.7 24.1 11 9.3 22.8 16.5 34.3 23.5 15 9.1 29.1 17.7 38.4 29.6 31 39.7-2.4 91.8-42.3 146.1l-1.2 1.6c-17.8 24.2-59.3 80.7-99.2 80.7-10.6 0-21-3.8-31.8-11.7-5.3-3.9-10.6-9.3-16.1-15.1-10.1-10.5-21.6-22.4-38.2-29.7-8.6-3.8-17.5-5.7-26.7-5.7-27.2 0-48.8 17-61.7 27.2-1.4 1.1-2.7 2.2-4 3.1-25.8 19.7-47.8 44.8-61.8 62.3-25.7 32.3-45.2 60.8-43.6 108.4 2.1 62.5 59.8 109.8 94 132.5 47.5 31.5 90.6 46.9 131.8 46.9 45.8 0 89.1-18.4 136.3-58 41.5-34.8 83.6-83.7 134.1-146.5 42.6-53 83-114.4 120.1-182.7 2.6-4.8 5.2-9.6 7.9-14.5 31.1-57 66.3-121.7 82.9-187.3 9-35.7 21.4-84.6-2.6-133.1-35.1-70.9-124.7-118.1-197.8-133.5-7.4-1.3-14.8-2.1-21.9-2.1z" fill="#01C700" p-id="5600"></path><path d="M602.5 194.2c-2.3 0-4.6-0.7-6.7-2-5.5-3.7-7-11.2-3.3-16.7 6.5-9.7 29.4-41.5 51.5-41.5 19.6 0 56 17.3 60.1 19.3 6 2.9 8.5 10.1 5.6 16.1s-10.1 8.5-16.1 5.6c-13.5-6.5-39-16.9-49.6-16.9-5.6 0-20.9 15-31.5 30.8-2.3 3.4-6.1 5.3-10 5.3z" fill="#01C700" p-id="5601"></path></svg>