<?xml version="1.0" standalone="no"?><!DOCTYPE svg PUBLIC "-//W3C//DTD SVG 1.1//EN" "http://www.w3.org/Graphics/SVG/1.1/DTD/svg11.dtd"><svg t="1698980717739" class="icon" viewBox="0 0 1024 1024" version="1.1" xmlns="http://www.w3.org/2000/svg" p-id="4581" xmlns:xlink="http://www.w3.org/1999/xlink" width="32" height="32"><path d="M834.6 240.4s24.1 78.5 25 187.7c1.5 186.8-136 345.3-320.9 371.5-154.3 21.8-305.6 9.1-305.6 9.1s94 62.6 328.8 43.1 301.4-86.1 309.3-109.6c7.8-23.5 106.8-408.6-36.6-501.8z" fill="#FFECBE" p-id="4582"></path><path d="M499.1 179.2c108.4 0 221 11.2 299.7 40.4C973 284.2 894.7 699.1 834 767.7c-37.9 42.8-205.1 75.7-361.9 75.7-94.1 0-184.5-11.8-241-40.5C80.4 726.5 98 254.9 191 216.7c51-21 176.4-37.5 308.1-37.5m0-23.5v23.5-23.5c-130.5 0-260.8 16.1-317 39.2-26.3 10.8-47.3 41.9-62.5 92.4-12.7 42.4-20.6 95.9-22.9 154.8C91 586.4 120 772.9 220.5 823.8c38.7 19.6 113.8 43 251.6 43 78.5 0 160.3-7.9 230.2-22.3 52.9-10.9 121.7-30.3 149.2-61.3 19.9-22.5 47.5-83.2 65-185.9 22.4-131.1 8.8-218.3-1.3-258.6-18.5-73.8-54.9-121.3-108.4-141.1-98.1-36.5-234.9-41.9-307.7-41.9z" fill="#FFBA01" p-id="4583"></path><path d="M517.2 497.6c-96 0-325.2-240.3-351.4-268.1l17.1-16.1c70.2 74.5 267.7 266.7 336.9 260.6 70-6.1 240.8-186 300.8-254.8l17.7 15.4c-0.5 0.6-55.7 63.9-121.2 127.2-89.5 86.5-155.2 132.2-195.3 135.7-1.5 0.1-3 0.1-4.6 0.1z" fill="#FFBA01" p-id="4584"></path><path d="M173 747.7l-20.8-11C204.4 638 416.1 455.2 425 447.5l15.3 17.8c-2.1 1.9-217.2 187.6-267.3 282.4zM844.2 760.9c-9.2-33.6-53-98.6-126.7-187.9-56.3-68.2-110.5-126.8-111.1-127.4l17.2-16c8.9 9.6 219.2 237.2 243.2 325.1l-22.6 6.2zM914.2 464.2c-2 0-4-0.8-5.5-2.3l-27.4-27.4c-3.1-3.1-3.1-8 0-11.1s8-3.1 11.1 0l27.4 27.4c3.1 3.1 3.1 8 0 11.1-1.6 1.6-3.6 2.3-5.6 2.3zM918.1 519c-2 0-4-0.8-5.5-2.3l-33.3-33.3c-3.1-3.1-3.1-8 0-11.1s8-3.1 11.1 0l33.3 33.3c3.1 3.1 3.1 8 0 11.1-1.6 1.6-3.6 2.3-5.6 2.3zM906.4 562.1c-2 0-4-0.8-5.5-2.3l-26.6-26.6c-3.1-3.1-3.1-8 0-11.1s8-3.1 11.1 0l26.6 26.6c3.1 3.1 3.1 8 0 11.1-1.6 1.5-3.6 2.3-5.6 2.3zM898.6 613c-2 0-4-0.8-5.5-2.3l-27.4-27.4c-3.1-3.1-3.1-8 0-11.1s8-3.1 11.1 0l27.4 27.4c3.1 3.1 3.1 8 0 11.1-1.6 1.5-3.6 2.3-5.6 2.3zM875.1 703c-2 0-4-0.8-5.5-2.3l-43.1-43.1c-3.1-3.1-3.1-8 0-11.1s8-3.1 11.1 0l43.1 43.1c3.1 3.1 3.1 8 0 11.1-1.6 1.5-3.6 2.3-5.6 2.3z" fill="#FFBA01" p-id="4585"></path><path d="M841.8 775.4c-2 0-4-0.8-5.5-2.3l-54.8-54.8c-3.1-3.1-3.1-8 0-11.1s8-3.1 11.1 0l54.8 54.8c3.1 3.1 3.1 8 0 11.1-1.6 1.5-3.6 2.3-5.6 2.3zM800.7 804.8c-2 0-4-0.8-5.5-2.3l-50.9-50.9c-3.1-3.1-3.1-8 0-11.1s8-3.1 11.1 0l50.9 50.9c3.1 3.1 3.1 8 0 11.1-1.6 1.5-3.6 2.3-5.6 2.3zM753.7 820.5c-2 0-4-0.8-5.5-2.3l-43.1-43.1c-3.1-3.1-3.1-8 0-11.1s8-3.1 11.1 0l43.1 43.1c3.1 3.1 3.1 8 0 11.1-1.6 1.5-3.6 2.3-5.6 2.3zM706.7 843.9c-2 0-4-0.8-5.5-2.3l-47-47c-3.1-3.1-3.1-8 0-11.1s8-3.1 11.1 0l47 47c3.1 3.1 3.1 8 0 11.1-1.6 1.6-3.6 2.3-5.6 2.3zM651.9 851.8c-2 0-4-0.8-5.5-2.3l-39.1-39.1c-3.1-3.1-3.1-8 0-11.1s8-3.1 11.1 0l39.1 39.1c3.1 3.1 3.1 8 0 11.1-1.6 1.5-3.6 2.3-5.6 2.3zM597.1 859.6c-2 0-4-0.8-5.5-2.3l-35.2-35.2c-3.1-3.1-3.1-8 0-11.1s8-3.1 11.1 0l35.2 35.2c3.1 3.1 3.1 8 0 11.1-1.6 1.5-3.6 2.3-5.6 2.3zM534.5 863.5c-2 0-4-0.8-5.5-2.3l-31.3-31.3c-3.1-3.1-3.1-8 0-11.1s8-3.1 11.1 0l31.3 31.3c3.1 3.1 3.1 8 0 11.1-1.6 1.6-3.6 2.3-5.6 2.3zM467.9 863.5c-2 0-4-0.8-5.5-2.3L435 833.8c-3.1-3.1-3.1-8 0-11.1s8-3.1 11.1 0l27.4 27.4c3.1 3.1 3.1 8 0 11.1-1.6 1.6-3.6 2.3-5.6 2.3zM890.7 660c-2 0-4-0.8-5.5-2.3L846 618.5c-3.1-3.1-3.1-8 0-11.1s8-3.1 11.1 0l39.1 39.1c3.1 3.1 3.1 8 0 11.1-1.5 1.6-3.5 2.4-5.5 2.4zM918.1 417.2c-2 0-4-0.8-5.5-2.3l-27.4-27.4c-3.1-3.1-3.1-8 0-11.1s8-3.1 11.1 0l27.4 27.4c3.1 3.1 3.1 8 0 11.1-1.6 1.6-3.6 2.3-5.6 2.3z" fill="#FFBA01" p-id="4586"></path></svg>