<?xml version="1.0" standalone="no"?><!DOCTYPE svg PUBLIC "-//W3C//DTD SVG 1.1//EN" "http://www.w3.org/Graphics/SVG/1.1/DTD/svg11.dtd"><svg t="1698980781942" class="icon" viewBox="0 0 1024 1024" version="1.1" xmlns="http://www.w3.org/2000/svg" p-id="6764" xmlns:xlink="http://www.w3.org/1999/xlink" width="32" height="32"><path d="M846.7 609.7s-17.1 127.8-149.9 241.5c-84.7 72.5-261.4 95.1-261.4 95.1s205.3 53.3 320.5-79.1 90.8-257.5 90.8-257.5z" fill="#FFDABB" p-id="6765"></path><path d="M634.6 942.7c-2.1 0-4.1-0.8-5.7-2.4l-18.6-18.6c-3.1-3.1-3.1-8.2 0-11.3 3.1-3.2 8.2-3.2 11.4 0l18.6 18.6c3.1 3.1 3.1 8.2 0 11.3-1.6 1.6-3.7 2.4-5.7 2.4zM596.1 955c-2.1 0-4.1-0.8-5.7-2.4L571.8 934c-3.1-3.1-3.1-8.2 0-11.4 3.1-3.1 8.2-3.1 11.4 0l18.6 18.6c3.1 3.1 3.1 8.2 0 11.4-1.6 1.7-3.6 2.4-5.7 2.4zM556.8 962.2c-2.1 0-4.1-0.8-5.7-2.4l-18.6-18.6c-3.1-3.1-3.1-8.2 0-11.3 3.1-3.2 8.2-3.2 11.4 0l18.6 18.6c3.1 3.1 3.1 8.2 0 11.3-1.6 1.7-3.6 2.4-5.7 2.4zM674.1 927.9c-2.1 0-4.1-0.8-5.7-2.4l-21.2-21.2c-3.1-3.1-3.1-8.2 0-11.3 3.1-3.2 8.2-3.2 11.4 0l21.2 21.2c3.1 3.1 3.1 8.2 0 11.3-1.6 1.6-3.7 2.4-5.7 2.4zM706.7 906.8c-2.1 0-4.1-0.8-5.7-2.3l-19.7-19.7c-3.1-3.1-3.1-8.2 0-11.4s8.2-3.1 11.4 0l19.7 19.7c3.1 3.1 3.1 8.2 0 11.4-1.6 1.6-3.7 2.3-5.7 2.3zM740.8 886.3c-2.1 0-4.1-0.8-5.7-2.3l-22-21.9c-3.1-3.1-3.1-8.2 0-11.4s8.2-3.1 11.4 0l22 21.9c3.1 3.1 3.1 8.2 0 11.4-1.6 1.5-3.7 2.3-5.7 2.3zM766.6 860.4c-2.1 0-4.1-0.8-5.7-2.3l-20.8-20.8c-3.1-3.1-3.1-8.2 0-11.4s8.2-3.1 11.4 0l20.8 20.8c3.1 3.1 3.1 8.2 0 11.4-1.6 1.5-3.6 2.3-5.7 2.3zM790.2 838.6c-2.1 0-4.1-0.8-5.7-2.4l-21.7-21.7c-3.1-3.1-3.1-8.2 0-11.4 3.1-3.1 8.2-3.1 11.4 0l21.7 21.7c3.1 3.1 3.1 8.2 0 11.4-1.6 1.6-3.6 2.4-5.7 2.4zM809.7 810.6c-2.1 0-4.1-0.8-5.7-2.4l-20.9-20.9c-3.1-3.1-3.1-8.2 0-11.3 3.1-3.2 8.2-3.2 11.4 0l20.9 20.9c3.1 3.1 3.1 8.2 0 11.3-1.6 1.7-3.7 2.4-5.7 2.4zM823.8 778.1c-2.1 0-4.1-0.8-5.7-2.4l-18.6-18.6c-3.1-3.1-3.1-8.2 0-11.3 3.1-3.2 8.2-3.2 11.4 0l18.6 18.6c3.1 3.1 3.1 8.2 0 11.3-1.6 1.6-3.6 2.4-5.7 2.4zM838.9 745.6c-2.1 0-4.1-0.8-5.7-2.4l-18.6-18.6c-3.1-3.1-3.1-8.2 0-11.3 3.1-3.2 8.2-3.2 11.4 0l18.6 18.6c3.1 3.1 3.1 8.2 0 11.3-1.5 1.6-3.6 2.4-5.7 2.4z" fill="#FF7E00" p-id="6766"></path><path d="M523.3 968.5c-52.4 0-106.2-10.3-157.2-31.4C251.4 889.7 178 799.3 164.8 689l-0.4-3.6c-11.8-117 42.7-236.6 149.6-328 1.8-1.5 4.4-3.9 7.7-7 14.9-13.6 27.3-24.4 37.8-32.3-25.5-8.9-59.4-25.1-77.9-52.2-15.2-22.2-17.4-47.3-6.8-74.7 17-43.5 52-65.1 93.6-57.8 22.2 3.9 42.5 15.5 54.8 29.7 17-32.4 53.1-88.5 105.9-103.6 32.6-9.4 66-1.8 99.3 22.4 22.2 17.6 34.7 39.2 37.6 64.5 4.1 35.8-11.5 78.2-45 123.1 31.1 23.4 88.3 81.3 89 82 57.1 61.1 125 142.5 144.2 230.7 25.3 116.7-19.8 240.6-114.9 315.7-59.1 46.5-136 70.6-216 70.6z m-132-641.4c-6.8 1.2-24.8 15.1-53.3 41.1-3.5 3.3-6.4 5.9-8.3 7.5C228.9 461.9 177.4 574 188.4 683.1l0.3 3.1c12.2 101.4 80.2 184.7 186.6 228.7 121 49.9 258 35.9 349-35.9 88-69.4 129.7-183.9 106.3-291.6-17.9-82.5-83.3-160.6-138.3-219.4-5.8-6.1-77.4-74.7-91.5-84.3-1.6-0.4-3.2-1.2-4.6-2.3-5.2-4.2-6-11.7-1.9-16.9 34.3-42.9 51.2-83.9 47.6-115.4-2.2-19-11.4-34.7-28.2-48.1-26.6-19.3-53-25.6-78-18.5-62.5 18-100.9 111.8-101.2 112.8-2.1 5.3-7.7 8.4-13.3 7.4-5.6-1-9.8-5.8-9.9-11.5-0.3-10.4-20.2-29.3-47.1-34-17.6-3.1-49.6-1.6-67 42.8-6.9 17.8-6.5 33.3 1.2 47.5 22.2 40.6 95.6 55.7 96.6 55.9 6.1 1.2 10.3 6.8 9.6 13-0.5 5.2-4.2 9.3-9 10.5-1.3 0.3-2.8 0.4-4.3 0.2z m-0.9-0.1z m222.3-46.9z m0.5-0.6c-0.2 0.2-0.3 0.4-0.5 0.6 0.2-0.2 0.4-0.4 0.5-0.6z" fill="#FF7E00" p-id="6767"></path><path d="M533.8 788.3h-29.2c-17.8 0-32.3-14.1-32.3-31.5v-31.2l-74.7-0.1c-10.4 0-20.4-4.3-27.5-11.7-6.9-7.2-10.5-16.6-10.1-26.5l0.5-11.4c0.8-17.9 15.6-31.8 33.9-31.8h0.6l77.3 1.2V627l-68-0.8c-7-0.1-13.7-3-18.3-8.1-4.6-5-6.9-11.4-6.5-18.1l2.1-35.7c0.7-11.3 10.4-19.4 21.7-19.6l43 1.2c-24.5-22-42.9-42.5-31.1-59.4 5.7-8.2 12.7-18.2 26.2-20.3 16-2.5 36.5 6.7 71.6 32.5 20.2-19.8 56-49.1 77.5-33.6 4.9 3.5 19.8 14.3 19.5 33-0.3 15.8-11.4 32.4-34.5 51.3l48 1.3c8.6 0.2 16.8 4 22.5 10.2 5.6 6.1 8.4 14 7.9 22.2l-0.8 13.7c-1.1 18.1-16.8 32.5-35 31.8l-57-0.6v18.6l81.7 1.3c8.6 0.1 16.9 3.8 22.8 10 5.7 6.1 8.7 13.9 8.3 22.2l-0.8 19.3c-0.6 14.9-13 26.5-28.2 26.5l-83.7-0.1v35.8c0 14.6-12.3 26.7-27.4 26.7zM394.5 668.1c-5.3 0-9.7 3.9-9.9 8.7l-0.5 11.4c-0.1 3.3 1.1 6.4 3.4 8.9 2.6 2.7 6.2 4.2 10.1 4.2l86.7 0.1c6.6 0 12 5.4 12 12v43.3c0 4.1 3.7 7.4 8.2 7.4h29.2c1.8 0 3.3-1.3 3.3-2.7v-47.8c0-3.2 1.3-6.3 3.5-8.5 2.3-2.3 5.3-3.5 8.5-3.5l95.7 0.2c2.2 0 4.1-1.5 4.2-3.4l0.8-19.3c0.1-2.2-0.9-3.7-1.8-4.6-1.4-1.5-3.4-2.4-5.6-2.4l-93.5-1.4c-6.6-0.1-11.9-5.5-11.9-12v-42.6c0-3.2 1.3-6.3 3.6-8.6s5.4-3.2 8.6-3.5l69.1 0.8c6.1 0.5 10.4-4 10.7-9.2l0.8-13.7c0.1-2.1-0.8-3.6-1.6-4.5-1.4-1.5-3.3-2.3-5.4-2.4l-74-2c-4.3-0.1-8.1-2.5-10.1-6-2.2-1.4-4-3.6-4.9-6.2-1.8-5.2 0.2-10.9 4.7-13.9 42.5-28.5 47.3-43.7 47.4-48.9 0-2.9-1-6.9-9.5-13.1-6.8-1.7-32.9 16.7-53.4 38.3-4.2 4.5-11.1 5-16 1.3-39.7-30.1-55.5-35.3-61.8-34.2-2.8 0.4-5 2.9-9.1 8.8 3.1 9.2 28.8 31.5 41.4 42.4 3.5 3 6.8 5.9 9.9 8.6 3.8 3.4 5.1 8.7 3.2 13.4s-6.5 7.4-11.5 7.6l-73.6-2-1.9 32.6 81 1.6c6.6 0.1 11.9 5.4 11.9 12v42.3c0 3.2-1.3 6.3-3.6 8.6s-5.4 3.7-8.6 3.5l-89.5-1.4c0-0.2-0.1-0.2-0.2-0.2z" fill="#FF7E00" p-id="6768"></path></svg>