<?xml version="1.0" standalone="no"?><!DOCTYPE svg PUBLIC "-//W3C//DTD SVG 1.1//EN" "http://www.w3.org/Graphics/SVG/1.1/DTD/svg11.dtd"><svg t="1698980728390" class="icon" viewBox="0 0 1024 1024" version="1.1" xmlns="http://www.w3.org/2000/svg" p-id="4872" xmlns:xlink="http://www.w3.org/1999/xlink" width="32" height="32"><path d="M869.5 536.5s-13.4 149.1-68.3 211.4c-31.9 36.2-129.7 53.2-163.9 44.3 0 0 108.2 80 206.1-2.6 45.9-40.3 26.1-253.1 26.1-253.1zM445.9 653.3s-10.8 143.6-69.5 203.8c-40.1 41.1-145.5 53.9-175.6 48.8 0 0 155 79.1 244.1-42.8 27.9-38.6 1-209.8 1-209.8z" fill="#E5D8FF" p-id="4873"></path><path d="M453.1 809c-2.1 0-4.1-0.8-5.7-2.3L424.7 784c-3.1-3.1-3.1-8.2 0-11.4 3.1-3.1 8.2-3.1 11.4 0l22.7 22.7c3.1 3.1 3.1 8.2 0 11.4-1.6 1.5-3.6 2.3-5.7 2.3zM460.1 768.6c-2.1 0-4.1-0.8-5.7-2.3l-22.5-22.5c-3.1-3.1-3.1-8.2 0-11.4 3.1-3.1 8.2-3.1 11.4 0l22.5 22.5c3.1 3.1 3.1 8.2 0 11.4-1.6 1.5-3.7 2.3-5.7 2.3zM445.6 851.2c-2.1 0-4.1-0.8-5.7-2.3L412.1 821c-3.1-3.1-3.1-8.2 0-11.4 3.1-3.1 8.2-3.1 11.4 0l27.9 27.8c3.1 3.1 3.1 8.2 0 11.4-1.7 1.6-3.8 2.4-5.8 2.4zM430.9 885c-2.1 0-4.1-0.8-5.7-2.3l-27.8-27.9c-3.1-3.1-3.1-8.2 0-11.4 3.1-3.1 8.2-3.1 11.4 0l27.9 27.8c3.1 3.1 3.1 8.2 0 11.4-1.7 1.6-3.7 2.4-5.8 2.4zM405.2 910.8c-2.1 0-4.1-0.8-5.7-2.3l-27.9-27.9c-3.1-3.1-3.1-8.2 0-11.4 3.1-3.1 8.2-3.1 11.4 0l27.9 27.8c3.1 3.1 3.1 8.2 0 11.4-1.6 1.6-3.7 2.4-5.7 2.4zM372.7 927.8c-2.1 0-4.1-0.8-5.7-2.3l-27.9-27.9c-3.1-3.1-3.1-8.2 0-11.4 3.1-3.1 8.2-3.1 11.4 0l27.8 27.8c3.1 3.1 3.1 8.2 0 11.4-1.5 1.7-3.5 2.4-5.6 2.4zM335.7 941.8c-2.1 0-4.1-0.8-5.7-2.3l-27.9-27.8c-3.1-3.1-3.1-8.2 0-11.4 3.1-3.1 8.2-3.1 11.4 0l27.9 27.9c3.1 3.1 3.1 8.2 0 11.4-1.6 1.4-3.6 2.2-5.7 2.2zM294.3 944.7c-2.1 0-4.1-0.8-5.7-2.3l-26.1-26.1c-3.1-3.1-3.1-8.2 0-11.4 3.1-3.1 8.2-3.1 11.4 0L300 931c3.1 3.1 3.1 8.2 0 11.4-1.6 1.5-3.7 2.3-5.7 2.3zM877 701.5c-2.1 0-4.1-0.8-5.7-2.3l-25.4-25.4c-3.1-3.1-3.1-8.2 0-11.4 3.1-3.1 8.2-3.1 11.4 0l25.4 25.4c3.1 3.1 3.1 8.2 0 11.4-1.6 1.5-3.6 2.3-5.7 2.3zM878.6 655.8c-2.1 0-4.1-0.8-5.7-2.3l-17.8-17.8c-3.1-3.1-3.1-8.2 0-11.4 3.1-3.1 8.2-3.1 11.4 0l17.8 17.8c3.1 3.1 3.1 8.2 0 11.4-1.6 1.5-3.7 2.3-5.7 2.3zM869.5 743.7c-2.1 0-4.1-0.8-5.7-2.3L834.4 712c-3.1-3.1-3.1-8.2 0-11.4 3.1-3.1 8.2-3.1 11.4 0l29.4 29.4c3.1 3.1 3.1 8.2 0 11.4-1.6 1.5-3.7 2.3-5.7 2.3zM854.8 777.5c-2.1 0-4.1-0.8-5.7-2.3l-30.4-30.4c-3.1-3.1-3.1-8.2 0-11.4 3.1-3.1 8.2-3.1 11.4 0l30.4 30.4c3.1 3.1 3.1 8.2 0 11.4-1.6 1.6-3.6 2.3-5.7 2.3zM829.1 803.3c-2.1 0-4.1-0.8-5.7-2.3l-27.8-27.8c-3.1-3.1-3.1-8.2 0-11.4 3.1-3.1 8.2-3.1 11.4 0l27.9 27.8c3.1 3.1 3.1 8.2 0 11.4-1.7 1.5-3.8 2.3-5.8 2.3zM796.6 820.4c-2.1 0-4.1-0.8-5.7-2.3l-27.8-27.9c-3.1-3.1-3.1-8.2 0-11.4 3.1-3.1 8.2-3.1 11.4 0l27.9 27.8c3.1 3.1 3.1 8.2 0 11.4-1.7 1.6-3.7 2.4-5.8 2.4zM759.6 834.3c-2.1 0-4.1-0.8-5.7-2.3L726 804.1c-3.1-3.1-3.1-8.2 0-11.4 3.1-3.1 8.2-3.1 11.4 0l27.8 27.8c3.1 3.1 3.1 8.2 0 11.4-1.5 1.6-3.6 2.4-5.6 2.4zM718.1 837.2c-2.1 0-4.1-0.8-5.7-2.3L684.6 807c-3.1-3.1-3.1-8.2 0-11.4 3.1-3.1 8.2-3.1 11.4 0l27.9 27.8c3.1 3.1 3.1 8.2 0 11.4-1.6 1.7-3.7 2.4-5.8 2.4z" fill="#A87DFF" p-id="4874"></path><path d="M304.9 945.7c-54.1 0-108.9-17.1-141.6-47.8-29.3-27.4-39.1-63.6-27.7-102 17.1-57.8 84.1-100.5 149.3-95.4 20.2 1.6 40 5 58.2 9.9l-20.2-405.1c-1.4-27.9 16-53.2 43.2-63 111.4-40.1 236-83.7 370.5-129.6 10.8-3.7 20.5-7.3 29.9-10.8 16.9-6.3 32.9-12.3 52.9-17.8 18.2-5 36-10 49.6-0.4 8.8 6.2 13.6 16.9 14.7 32.7 7.8 107.8 10.6 227.4 9 376.4-0.6 59.3-1.7 128.4-6.5 197.2-3.8 54.7-18.1 129.2-98.1 144.3-61.1 11.5-168.3 1.9-195.5-72.7-22-60.1 1.6-120.9 56.1-144.6C684 601.6 726 599 751 597.5c4.8-0.3 10-0.6 13.9-1 2.7-25.7 2.9-121.9 0.5-244.8-0.1-3-2-4.7-3.2-5.5-2.4-1.6-5.5-1.8-8.3-0.7L463.3 464.8c5.4 97.7 7.5 184.9 6.4 266.4-0.4 31.5-1.3 68.2-5.2 104.4-4.9 44.8-34.3 79.3-82.8 97.3-23.6 8.7-50.2 12.8-76.8 12.8z m-30.7-221.5c-50.9 0-102.6 34.4-115.6 78.6-8.9 30.1-1.8 56.2 21.1 77.6 42.2 39.4 130.8 53.1 193.7 29.8 27.9-10.3 62.2-32.1 67.2-77.3 3.9-35.1 4.6-71.1 5.1-102.1 1.2-83.3-1-172.7-6.8-273.3-0.3-5.1 2.7-9.9 7.5-11.8l298.4-122.3c10.1-4.2 21.5-3.1 30.6 2.8 8.6 5.7 13.9 15.1 14.1 25.2 4.9 250.2-1.8 258.9-5 263.1-1.3 1.8-3.2 3.1-5.2 3.9-5 1.9-12.2 2.5-26.8 3.3-25 1.5-62.7 3.8-94.2 17.5-48 20.9-58 73.3-43.1 114.2 21 57.4 111.2 68.1 168.5 57.3 49.8-9.4 73.2-45.9 78.5-122.3 4.7-68.1 5.8-136.8 6.4-195.8 1.6-148.3-1.3-267.3-9-374.5-0.8-11-3.5-14-4.6-14.8-4.3-3-17.6 0.7-28.3 3.6-19.9 5.5-35.4 11.3-51.8 17.4-9.6 3.6-19.5 7.3-30.6 11.1C610 181.3 485.5 224.9 374.2 265c-17.2 6.2-28.2 21.9-27.3 39.2L368 726.4c0.2 4-1.6 7.8-4.8 10.2-3.2 2.4-7.4 3.1-11.1 1.8-20.6-7.1-44.5-11.8-69.1-13.8-2.9-0.3-5.9-0.4-8.8-0.4z" fill="#A87DFF" p-id="4875"></path></svg>